<?xml version="1.0" encoding="UTF-8" standalone="no"?>
<svg
   version="1.0"
   width="239.28pt"
   height="276.1875pt"
   viewBox="0 0 239.28 276.1875"
   preserveAspectRatio="xMidYMid"
   id="svg342"
   sodipodi:docname="logo.svg"
   inkscape:version="1.2.1 (9c6d41e, 2022-07-14)"
   inkscape:export-filename="logo.png"
   inkscape:export-xdpi="758.57568"
   inkscape:export-ydpi="758.57568"
   xmlns:inkscape="http://www.inkscape.org/namespaces/inkscape"
   xmlns:sodipodi="http://sodipodi.sourceforge.net/DTD/sodipodi-0.dtd"
   xmlns="http://www.w3.org/2000/svg"
   xmlns:svg="http://www.w3.org/2000/svg">
  <defs
     id="defs346">
    <rect
       x="151.85999"
       y="229.40549"
       width="243.62218"
       height="52.343227"
       id="rect1103" />
    <clipPath
       id="cpMTExLjU0fDQzMC41N3wzNjguMjV8MC4wMA==">
      <rect
         x="111.54"
         y="0"
         width="319.04001"
         height="368.25"
         id="rect20" />
    </clipPath>
    <clipPath
       id="cpMTk4LjgyfDI3MS4wNXwyNzQuNDl8MTg0LjIw">
      <rect
         x="198.82001"
         y="184.2"
         width="72.230003"
         height="90.290001"
         id="rect29" />
    </clipPath>
    <clipPath
       id="clipPath9869">
      <rect
         x="198.82001"
         y="184.2"
         width="72.230003"
         height="90.290001"
         id="rect9867" />
    </clipPath>
    <clipPath
       id="clipPath9873">
      <rect
         x="111.54"
         y="0"
         width="319.04001"
         height="368.25"
         id="rect9871" />
    </clipPath>
    <clipPath
       id="clipPath9877">
      <rect
         x="111.54"
         y="0"
         width="319.04001"
         height="368.25"
         id="rect9875" />
    </clipPath>
    <clipPath
       id="cpMTExLjY4fDQzMC41N3wzNjguMjV8MC4wMA==">
      <rect
         x="111.68"
         y="0"
         width="318.89999"
         height="368.25"
         id="rect8" />
    </clipPath>
  </defs>
  <sodipodi:namedview
     id="namedview344"
     pagecolor="#ffffff"
     bordercolor="#000000"
     borderopacity="0.25"
     inkscape:showpageshadow="2"
     inkscape:pageopacity="0.0"
     inkscape:pagecheckerboard="0"
     inkscape:deskcolor="#d1d1d1"
     inkscape:document-units="pt"
     showgrid="false"
     inkscape:zoom="2.8288134"
     inkscape:cx="122.31277"
     inkscape:cy="183.64591"
     inkscape:window-width="1512"
     inkscape:window-height="833"
     inkscape:window-x="0"
     inkscape:window-y="38"
     inkscape:window-maximized="0"
     inkscape:current-layer="svg342" />
  <rect
     x="111.68"
     y="0"
     width="318.89999"
     height="368.25"
     style="fill:none;stroke:none;stroke-width:1.07;stroke-linecap:round;stroke-linejoin:round;stroke-miterlimit:10"
     clip-path="url(#cpMTExLjY4fDQzMC41N3wzNjguMjV8MC4wMA==)"
     id="rect13"
     transform="matrix(0.75,0,0,0.75,-83.655,0)" />
  <rect
     x="111.54"
     y="0"
     width="319.04001"
     height="368.39001"
     style="fill:none;stroke:none;stroke-width:1.07;stroke-linecap:round;stroke-linejoin:round;stroke-miterlimit:10"
     clip-path="url(#cpMTExLjU0fDQzMC41N3wzNjguMjV8MC4wMA==)"
     id="rect25"
     transform="matrix(0.75,0,0,0.75,-83.655,0)" />
  <polygon
     points="427.44,274.49 427.44,93.9 271.05,3.61 114.66,93.9 114.66,274.49 271.05,364.78 "
     style="fill:#d29638;fill-opacity:1;stroke:none;stroke-width:6.4;stroke-linecap:round;stroke-linejoin:round;stroke-miterlimit:10;stroke-opacity:1"
     clip-path="url(#cpMTExLjU0fDQzMC41N3wzNjguMjV8MC4wMA==)"
     id="polygon27"
     transform="matrix(0.75,0,0,0.75,-83.655,0)" />
  <path
     style="fill:#fafafa;fill-opacity:1;stroke:none;stroke-width:0.213;stroke-linejoin:round;stroke-dasharray:none;stroke-opacity:1"
     d="m 80.768025,101.20728 3.086873,6.20371 0.359632,1.19878 0.599393,1.73824 0.419572,0.92905 -0.749242,0.20979 -4.28565,-10.15969 0.44955,-0.11988 z"
     id="path43686" />
  <ellipse
     style="fill:#3b517c;fill-opacity:1;stroke:#000000;stroke-width:0.213;stroke-linejoin:round;stroke-dasharray:none;stroke-opacity:1"
     id="path42978"
     cx="169.51956"
     cy="204.06516"
     rx="4.6074891"
     ry="0.76916784" />
  <path
     style="fill:#a10000;fill-opacity:1;stroke:#000000;stroke-width:0.3;stroke-linejoin:round;stroke-dasharray:none;stroke-opacity:1"
     d="m 22.927971,191.65432 0.470317,-0.61729 0.529107,-0.23516 3.64496,-0.73487 3.497986,0.41153 0.264553,0.17637 4.232856,4.37983 h -0.97003 l -1.499136,-0.20577 -5.937756,-1.02882 -2.410377,-0.67608 z"
     id="path40018" />
  <path
     style="fill:#b80e2a;fill-opacity:1;stroke:none;stroke-width:1.323;stroke-linejoin:round;stroke-dasharray:none;stroke-opacity:1"
     d="m 188.5254,194.77081 -1.19397,-0.48984 0.85721,-1.01028 2.0818,-0.42861 1.77565,0.0306 0.42862,0.18369 z"
     id="path38510" />
  <path
     style="fill:#234f1e;fill-opacity:1;stroke:none;stroke-width:1.323;stroke-linejoin:round;stroke-dasharray:none;stroke-opacity:1"
     d="m 38.04936,192.3769 1.169465,-1.0024 5.471422,-0.0835 3.383093,0.5012 1.420064,0.8771 -0.334132,1.08593 -0.710033,0.3759 -1.420063,0.20883 h -4.009592 l -3.508394,-0.45943 -1.503597,-0.75179 z"
     id="path37782" />
  <ellipse
     style="fill:#a90e2a;fill-opacity:1;stroke:#000000;stroke-width:0.2;stroke-linejoin:round;stroke-dasharray:none;stroke-opacity:1"
     id="path37726"
     cx="179.8945"
     cy="202.73267"
     rx="3.9573832"
     ry="1.6088428" />
  <path
     style="fill:#b80e2a;fill-opacity:1;stroke:none;stroke-width:1.323;stroke-linejoin:round;stroke-dasharray:none;stroke-opacity:1"
     d="m 213.82945,147.85307 0.65977,-2.17722 1.51746,-1.91331 3.10089,-1.25356 -0.32989,1.7154 -2.771,3.8926 -0.79172,0.59378 z"
     id="path36682" />
  <path
     style="fill:#234f1e;fill-opacity:1;stroke:none;stroke-width:1.323;stroke-linejoin:round;stroke-dasharray:none;stroke-opacity:1"
     d="m 206.96791,150.22822 0.066,-1.78136 1.18757,-1.58343 1.31953,-0.98964 0.26391,1.25355 -1.45149,3.36479 z"
     id="path35900" />
  <path
     style="fill:#ffffff;fill-opacity:1;stroke:none;stroke-width:0.400607;stroke-linejoin:round;stroke-dasharray:none;stroke-opacity:1"
     d="M 28.524321,100.0194 59.98105,167.00104 102.90082,150.02166 72.243842,83.173725 Z"
     id="path20723" />
  <path
     style="fill:#3b517c;fill-opacity:1;stroke:none;stroke-width:1.323;stroke-linejoin:round;stroke-dasharray:none;stroke-opacity:1"
     d="m 63.372987,107.23865 -4.266152,2.88998 -1.926648,4.12853 -1.066538,1.47939 -2.201884,1.5138 -1.479392,0.7913 -0.317403,0.76229 0.787051,-0.048 3.7621,-1.29912 3.784489,-3.1308 2.098672,-3.78449 z"
     id="path25157"
     sodipodi:nodetypes="cccccccccccc" />
  <path
     style="fill:#3b517c;fill-opacity:1;stroke:none;stroke-width:1.323;stroke-linejoin:round;stroke-dasharray:none;stroke-opacity:1"
     d="m 63.407391,107.54829 -2.683547,6.70887 -4.26615,3.30283 5.883159,-1.92666 2.305098,-4.98864 0.103214,-2.99319 z"
     id="path24425" />
  <path
     style="fill:#3b517c;fill-opacity:1;stroke:none;stroke-width:1.323;stroke-linejoin:round;stroke-dasharray:none;stroke-opacity:1"
     d="m 67.256362,103.90215 -7.918193,6.08349 0.434535,-3.23488 1.882985,-2.12439 5.021293,-1.35189 z"
     id="path22135" />
  <path
     style="fill:#d29638;fill-opacity:1;stroke:none;stroke-width:0.4;stroke-linejoin:round;stroke-dasharray:none;stroke-opacity:1"
     d="m 76.351965,91.362188 -8.856025,11.007492 0.550374,0.55037 10.056849,-7.555143 z"
     id="path22133" />
  <path
     style="fill:#d29638;fill-opacity:1;stroke:none;stroke-width:0.409635;stroke-linejoin:round;stroke-dasharray:none;stroke-opacity:1"
     d="m 81.934927,150.95146 -0.08679,7.61378 11.022759,-4.46896 z"
     id="path22131" />
  <path
     style="fill:#d29638;fill-opacity:1;stroke:none;stroke-width:0.40232;stroke-linejoin:round;stroke-dasharray:none;stroke-opacity:1"
     d="m 68.83395,146.56493 23.582003,7.73719 11.312987,-4.35217 -7.48888,-14.9908 -12.10968,4.35216 z"
     id="path22021" />
  <rect
     x="198.82001"
     y="184.2"
     width="72.230003"
     height="90.290001"
     style="fill:none;stroke:none;stroke-width:0.75;stroke-linecap:round;stroke-linejoin:round;stroke-miterlimit:10"
     clip-path="url(#cpMTk4LjgyfDI3MS4wNXwyNzQuNDl8MTg0LjIw)"
     id="rect34"
     transform="matrix(0.75,0,0,0.75,-83.655,0)" />
  <rect
     x="198.82001"
     y="184.2"
     width="72.230003"
     height="90.290001"
     style="fill:none;stroke:none;stroke-width:0.75;stroke-linecap:round;stroke-linejoin:round;stroke-miterlimit:10"
     clip-path="url(#cpMTk4LjgyfDI3MS4wNXwyNzQuNDl8MTg0LjIw)"
     id="rect48"
     transform="matrix(0.75,0,0,0.75,-83.655,0)" />
  <polyline
     points="114.66,93.90 114.66,274.49 271.05,364.78 427.44,274.49 427.44,93.90 271.05,3.61 114.66,93.90 114.66,93.90 "
     style="fill:none;stroke:#120000;stroke-width:6.4;stroke-linecap:round;stroke-linejoin:round;stroke-miterlimit:10;stroke-opacity:1"
     clip-path="url(#cpMTExLjU0fDQzMC41N3wzNjguMjV8MC4wMA==)"
     id="polyline248"
     transform="matrix(0.75,0,0,0.75,-83.655,0)" />
  <text
     xml:space="preserve"
     id="text1101"
     style="font-weight:bold;font-size:33.3333px;font-family:Georgia;-inkscape-font-specification:'Georgia Bold';text-align:center;white-space:pre;shape-inside:url(#rect1103);display:inline;fill:#ffffff;fill-opacity:1;stroke:#000000;stroke-width:1.28066;stroke-linejoin:round;stroke-dasharray:none;stroke-opacity:1"
     transform="matrix(1.0330608,0,0,1.0330579,-163.5107,-36.213629)"><tspan
       x="225.10438"
       y="259.48023"
       id="tspan1158"><tspan
         style="font-family:'American Typewriter';-inkscape-font-specification:'American Typewriter Bold'"
         id="tspan1156">aRtsy</tspan></tspan></text>
  <g
     transform="matrix(0.02311256,0,0,-0.02311256,-3.8999319,230.04604)"
     fill="#000000"
     stroke="none"
     id="g340"
     style="fill:#000004;fill-opacity:1;stroke:none;stroke-opacity:1;stroke-width:17.30660721;stroke-dasharray:none">
    <path
       d="m 6265,9046 c -22,-24 -157,-169 -300,-322 -237,-253 -378,-408 -630,-689 -257,-287 -330,-366 -400,-435 -43,-41 -74,-68 -69,-60 4,8 7,33 5,57 -2,38 0,43 19,43 12,0 30,-5 41,-10 15,-8 19,-7 19,4 0,17 -61,33 -80,21 -7,-4 -41,-7 -75,-6 -65,1 -107,-9 -130,-33 -8,-7 -37,-16 -64,-20 -110,-15 -280,-86 -274,-114 2,-6 -3,-9 -11,-6 -17,6 -103,-61 -149,-118 -51,-62 -94,-160 -113,-254 -8,-43 -20,-94 -25,-112 -6,-17 -8,-41 -4,-51 3,-11 10,-63 14,-115 6,-70 13,-102 26,-116 17,-19 16,-21 -31,-77 -27,-31 -80,-91 -119,-133 -108,-116 -233,-254 -338,-373 -53,-59 -99,-108 -102,-108 -7,0 -62,111 -137,276 -51,113 -63,129 -88,119 -73,-30 -424,-157 -472,-171 -11,-3 -18,3 -23,19 -17,57 -59,138 -71,138 -8,0 -44,-12 -81,-26 -100,-38 -186,-65 -191,-60 -4,5 -84,186 -177,401 -83,195 -76,188 -156,160 -68,-24 -89,-37 -89,-57 0,-11 25,-73 55,-138 30,-65 55,-121 55,-124 0,-3 33,-75 74,-160 l 74,-155 -42,-16 c -194,-77 -356,-151 -356,-163 0,-11 33,-85 68,-154 4,-9 -62,-38 -263,-113 -257,-96 -421,-169 -430,-193 -7,-18 19,-75 207,-472 186,-391 376,-793 413,-875 15,-33 68,-145 117,-249 l 88,-189 -40,-246 c -53,-325 -106,-672 -131,-851 -10,-80 -26,-184 -34,-232 -18,-102 -45,-312 -45,-349 0,-22 7,-30 40,-43 22,-9 56,-16 74,-16 35,0 90,23 80,33 -6,6 16,156 76,497 39,223 66,381 99,575 11,68 21,100 30,100 7,0 51,-74 97,-165 101,-198 404,-818 404,-825 0,-3 56,-121 124,-263 68,-141 136,-284 151,-317 15,-33 63,-139 107,-235 44,-96 88,-184 98,-194 32,-33 179,-18 194,20 5,14 -23,93 -60,166 -44,87 -246,536 -406,902 -38,87 -68,165 -66,174 2,10 62,39 163,80 88,35 275,111 415,169 140,58 261,107 268,110 9,4 12,-116 12,-581 v -585 l 22,-12 c 13,-7 419,-145 903,-307 656,-219 893,-295 931,-296 29,0 50,-5 47,-10 -3,-5 0,-7 8,-4 8,3 14,11 14,18 0,14 311,141 351,144 12,0 21,3 19,6 -2,3 74,34 168,69 95,34 181,67 192,72 74,34 319,118 328,112 5,-3 8,-2 4,3 -6,11 196,87 230,86 14,0 20,4 16,11 -4,6 0,8 10,4 10,-3 17,-2 17,3 0,9 97,46 117,44 7,-1 11,2 8,6 -2,4 14,13 36,19 23,7 48,15 58,17 9,3 5,-2 -9,-10 -14,-8 -20,-15 -15,-15 17,-1 38,17 44,36 3,10 6,372 5,805 l -1,788 51,18 c 28,11 146,52 261,93 452,158 600,214 600,229 0,9 -28,23 -80,38 -311,93 -404,121 -593,184 -116,38 -210,74 -206,79 3,5 11,9 18,9 15,0 382,144 405,159 8,5 12,15 9,23 -6,14 -235,90 -553,183 -104,31 -212,64 -240,75 -27,10 -59,20 -69,22 -15,2 -2,22 68,103 47,55 157,186 243,290 87,105 266,316 398,470 314,366 380,445 395,475 14,26 17,111 6,146 -6,20 -1,22 71,33 153,25 189,33 250,62 129,61 208,197 220,380 10,152 -30,335 -97,439 -39,60 -114,132 -169,160 -73,37 -187,61 -283,59 l -86,-2 -62,66 -61,66 33,6 c 75,13 186,12 248,-2 76,-17 131,-11 205,21 91,41 137,116 136,227 0,56 -6,81 -30,132 -79,164 -292,344 -513,435 -141,59 -235,76 -408,76 -144,0 -161,-2 -240,-28 -47,-16 -107,-39 -133,-53 l -48,-24 -19,23 c -11,13 -19,20 -20,16 0,-4 -70,66 -156,155 -86,89 -164,163 -174,165 -9,2 63,-78 161,-178 99,-99 179,-184 179,-189 0,-13 -32,-23 -39,-12 -19,30 -375,381 -384,378 -6,-2 77,-92 184,-200 l 194,-196 -78,-60 c -78,-61 -93,-69 -99,-52 -1,6 -84,92 -184,193 l -180,183 -12,78 c -14,90 -30,127 -81,181 -33,35 -34,38 -11,31 56,-16 93,-40 139,-90 l 48,-53 62,5 c 33,3 61,9 61,12 0,17 -60,99 -96,130 -44,39 -160,96 -217,106 -68,13 -125,-2 -173,-47 -25,-23 -47,-38 -51,-35 -11,12 58,112 193,276 73,91 146,182 160,203 l 27,38 -23,25 c -33,35 -49,31 -95,-19 z m 81,10 c 3,-8 -26,-44 -72,-89 -43,-42 -75,-80 -71,-84 4,-4 26,13 48,37 23,25 36,36 31,25 -6,-11 -32,-40 -59,-65 -55,-52 -108,-111 -108,-123 0,-4 -11,-15 -25,-25 -14,-9 -26,-24 -28,-32 -5,-23 -23,-40 -35,-33 -5,3 -7,1 -4,-4 9,-14 -19,-37 -34,-27 -8,4 -9,3 -5,-4 4,-6 -5,-18 -19,-28 -14,-9 -22,-21 -18,-28 4,-6 -2,-4 -12,4 -10,8 -16,10 -12,3 5,-7 -25,-44 -77,-96 -46,-46 -96,-102 -111,-125 -15,-23 -31,-42 -35,-42 -4,0 -15,-12 -25,-27 -9,-16 12,1 48,37 140,141 201,180 279,180 41,0 122,-32 160,-63 28,-22 52,-87 37,-101 -8,-8 -13,-8 -16,2 -3,7 -16,25 -29,40 -17,19 -22,21 -18,8 5,-13 -6,-9 -40,18 -71,54 -152,64 -224,27 -42,-21 -249,-225 -281,-277 -18,-28 -101,-111 -87,-87 3,6 1,15 -6,19 -7,4 -10,4 -6,-1 4,-4 3,-17 -3,-28 -9,-15 -8,-18 3,-11 11,6 11,5 -1,-9 -7,-9 -17,-14 -22,-11 -5,3 -8,2 -7,-3 4,-12 -53,-84 -62,-78 -8,5 -57,-48 -100,-108 -16,-23 -28,-31 -32,-24 -5,8 -8,6 -8,-4 0,-9 -38,-52 -85,-95 -47,-43 -85,-83 -85,-89 0,-6 -16,-26 -35,-45 -19,-19 -35,-38 -35,-43 0,-5 14,6 31,24 37,40 26,16 -13,-30 -15,-18 -32,-29 -38,-26 -5,3 -10,-1 -10,-10 0,-9 -70,-86 -155,-171 -85,-86 -155,-160 -155,-165 0,-5 -7,-9 -16,-9 -8,0 -12,5 -9,10 8,13 -21,13 -46,0 -20,-11 -49,-3 -32,9 5,3 18,19 30,34 12,16 87,97 166,180 200,212 310,330 392,423 208,235 526,587 649,719 78,83 184,198 236,255 153,169 263,280 277,280 8,0 16,-6 19,-14 z m -26,-60 c 0,-2 -8,-10 -17,-17 -16,-13 -17,-12 -4,4 13,16 21,21 21,13 z m -65,-421 c 82,-22 156,-67 201,-123 31,-39 33,-42 8,-19 -17,15 -34,27 -38,27 -5,0 -25,12 -45,28 -49,37 -101,65 -101,55 0,-5 12,-16 28,-25 15,-9 36,-26 47,-38 16,-18 11,-16 -25,7 -25,16 -64,37 -88,46 -54,21 -135,22 -152,2 -7,-8 -17,-15 -23,-15 -6,0 2,13 18,29 40,43 80,49 170,26 z m -39,-119 c 59,-62 84,-132 84,-239 0,-147 -101,-308 -212,-338 -88,-23 -176,13 -234,96 -30,44 -71,145 -59,145 2,0 34,-45 70,-100 37,-55 71,-103 77,-107 7,-3 29,-10 51,-14 102,-18 224,68 262,186 29,89 26,213 -7,285 -25,55 -95,130 -122,130 -8,0 -18,5 -22,11 -4,8 4,9 27,4 23,-4 51,-24 85,-59 z m -195,-16 c 97,-27 149,-169 100,-275 -22,-49 -79,-101 -121,-110 -46,-10 -114,3 -145,27 -34,27 -85,116 -85,150 0,58 25,122 58,153 66,58 122,75 193,55 z m -271,-214 c -8,-54 -19,-71 -103,-162 -37,-39 -71,-84 -77,-100 -10,-28 -10,-28 17,6 15,19 53,61 83,94 30,32 62,69 71,82 19,29 29,22 29,-22 0,-37 -41,-83 -332,-379 -81,-82 -145,-151 -144,-153 5,-4 236,225 374,371 56,59 103,107 106,107 10,0 13,-86 4,-97 -8,-10 -7,-12 4,-8 10,4 24,-14 47,-61 l 33,-66 -24,-26 c -12,-15 -25,-29 -28,-32 -3,-3 -43,-48 -89,-100 -46,-52 -114,-127 -150,-166 -36,-40 -74,-83 -83,-97 l -17,-24 -87,83 c -48,46 -92,95 -99,108 -19,35 -1,64 105,171 49,50 105,114 125,144 49,74 50,75 36,67 -6,-4 -29,-33 -50,-64 -21,-32 -86,-105 -145,-164 -58,-58 -106,-111 -106,-118 0,-7 -7,-10 -15,-7 -8,4 -17,2 -20,-3 -4,-6 3,-10 14,-10 12,0 21,-4 21,-10 0,-5 -22,-10 -50,-10 -27,0 -50,3 -50,7 0,8 273,286 279,283 5,-3 211,258 269,339 24,34 47,61 51,61 4,0 5,-20 1,-44 z m -100,-20 c 0,-2 -8,-10 -17,-17 -16,-13 -17,-12 -4,4 13,16 21,21 21,13 z m 1017,-365 32,-34 -80,-91 c -72,-81 -168,-212 -182,-248 -4,-9 -8,-10 -14,-2 -4,6 -72,81 -149,165 -78,85 -153,168 -168,185 l -26,31 46,18 c 36,13 56,32 99,89 57,75 79,124 90,198 l 7,44 156,-161 c 87,-88 171,-176 189,-194 z m -1126,221 c -24,-44 -121,-186 -121,-176 0,12 118,194 126,194 2,0 0,-8 -5,-18 z m 1990,-7 c 244,-43 449,-153 623,-335 155,-162 187,-316 90,-429 -23,-26 -53,-47 -90,-60 -63,-24 -97,-26 -194,-9 -63,11 -70,14 -70,35 0,19 5,23 30,23 17,0 33,-7 39,-17 8,-15 23,-18 78,-17 109,1 189,55 213,145 52,193 -263,498 -625,606 -80,23 -108,26 -245,27 -136,1 -164,-2 -230,-22 -193,-61 -300,-125 -431,-259 -102,-103 -186,-212 -233,-302 -28,-54 -35,-61 -40,-43 -16,49 133,264 275,397 235,220 519,311 810,260 z m -1511,-55 c 23,-7 24,-8 6,-15 -13,-6 -21,-4 -24,3 -2,7 -8,10 -12,7 -5,-3 -11,-1 -15,5 -7,11 8,12 45,0 z m 1437,-1 c 131,-14 250,-51 363,-111 130,-69 172,-100 267,-193 163,-160 191,-320 72,-397 -60,-39 -118,-45 -172,-19 -24,12 -62,21 -85,21 -48,0 -186,-35 -218,-55 -23,-15 -12,-26 -496,484 l -177,186 32,16 c 62,32 203,68 305,78 7,0 56,-4 109,-10 z M 5362,7878 c -21,-29 -48,-60 -58,-68 -10,-8 -5,2 13,23 18,20 43,55 55,77 13,22 24,35 26,30 2,-5 -14,-33 -36,-62 z m 1790,-160 c -1,-5 1,-7 6,-4 10,6 62,-47 62,-64 0,-6 4,-8 10,-5 5,3 12,-5 16,-19 3,-14 9,-24 13,-23 4,1 30,-18 58,-42 35,-30 50,-48 46,-60 -4,-9 -3,-13 1,-10 10,9 127,-103 122,-117 -2,-6 3,-11 12,-10 9,0 16,-5 14,-11 -1,-7 2,-13 7,-13 5,0 26,-23 46,-50 20,-28 40,-48 45,-45 4,3 14,-3 21,-13 13,-15 12,-16 -3,-3 -10,7 -18,10 -18,5 0,-4 -93,87 -207,202 -289,292 -440,448 -426,440 6,-3 14,-2 18,4 7,11 162,-148 157,-162 z m 134,-193 c 216,-221 350,-349 389,-374 33,-21 71,-52 85,-67 l 25,-29 -25,22 c -63,55 -170,68 -270,33 l -55,-19 -46,47 c -25,26 -108,112 -184,192 -77,80 -189,197 -251,260 -116,120 -140,152 -128,173 6,8 2,8 -12,-2 -10,-7 3,8 30,34 33,31 56,45 68,42 10,-3 16,-1 13,3 -5,7 9,17 26,19 4,1 155,-150 335,-334 z m -1119,193 c 217,-239 248,-277 262,-321 12,-35 39,-61 58,-55 5,2 42,-35 83,-81 41,-47 118,-133 170,-192 52,-59 152,-171 223,-249 70,-77 134,-155 144,-173 9,-18 22,-36 28,-42 7,-5 16,-32 20,-60 4,-27 14,-66 22,-87 21,-54 10,-85 -51,-143 -29,-27 -74,-77 -101,-110 -26,-33 -64,-78 -84,-100 -39,-43 -301,-350 -366,-430 -46,-56 -114,-136 -269,-314 -59,-70 -165,-193 -234,-276 -267,-317 -303,-355 -337,-355 -17,0 -89,-18 -160,-41 -256,-81 -612,-191 -695,-216 -107,-31 -136,-48 -119,-70 15,-18 102,-58 148,-68 17,-4 31,-10 31,-13 0,-5 -520,-182 -586,-200 -7,-2 -26,28 -44,65 -54,114 -258,556 -351,763 -52,117 -94,196 -103,198 -11,2 -2,-26 33,-100 27,-57 109,-233 182,-393 72,-159 158,-346 190,-414 33,-68 59,-125 59,-126 0,-4 -22,-12 -260,-95 -124,-43 -259,-94 -300,-113 -41,-19 -172,-79 -290,-132 -334,-152 -340,-155 -340,-165 0,-5 6,-12 13,-17 11,-7 238,-79 465,-148 l 92,-28 v -159 c 0,-126 -3,-158 -13,-158 -8,0 -108,-38 -223,-86 -607,-248 -683,-278 -688,-273 -2,2 -45,94 -96,204 -51,110 -149,319 -218,465 -68,146 -187,400 -264,565 -197,422 -252,538 -506,1070 -123,259 -236,494 -249,523 -14,29 -23,55 -21,57 3,3 108,44 234,91 500,187 893,338 1134,436 352,143 495,197 500,191 10,-11 160,-338 160,-348 0,-7 -26,-40 -173,-219 -32,-39 -76,-93 -98,-121 -147,-183 -133,-171 -211,-185 -86,-15 -125,-31 -167,-66 -43,-36 -56,-64 -85,-182 -41,-168 -117,-290 -200,-323 -29,-12 -95,-59 -82,-59 3,0 33,15 67,32 91,48 138,100 190,212 31,68 49,96 62,96 10,0 21,8 24,17 11,28 57,63 65,50 6,-9 8,-8 8,2 0,13 28,40 42,41 13,0 -30,-118 -72,-198 -25,-48 -57,-94 -79,-112 -81,-66 -91,-75 -91,-84 0,-5 8,-2 18,7 10,10 23,17 29,17 6,0 13,3 15,8 2,4 22,22 45,40 38,29 43,31 52,15 6,-10 11,-13 11,-7 0,5 -5,15 -11,21 -7,7 -3,19 14,39 28,35 60,107 86,200 16,58 20,63 20,34 1,-50 -26,-159 -49,-198 -11,-18 -20,-36 -20,-40 1,-12 40,42 40,56 0,6 5,12 11,12 6,0 0,-19 -14,-42 -15,-24 -31,-42 -36,-41 -6,2 -8,-3 -5,-11 5,-14 -40,-56 -60,-56 -6,0 -27,-11 -46,-23 -19,-13 -48,-29 -65,-34 -16,-6 -37,-14 -46,-17 -29,-12 -17,22 19,51 70,57 96,83 89,89 -4,4 -7,2 -7,-4 0,-7 -5,-12 -10,-12 -6,0 1,20 15,43 37,63 31,67 -10,7 -19,-29 -32,-57 -28,-63 3,-5 2,-7 -4,-4 -5,3 -37,-23 -71,-58 -35,-35 -70,-66 -80,-69 -52,-15 -108,-30 -117,-30 -6,-1 -31,-11 -55,-23 -25,-12 -72,-29 -105,-38 -73,-19 -135,-45 -135,-56 0,-6 152,35 173,48 4,2 28,8 55,12 26,5 85,20 132,34 47,13 101,27 120,30 19,3 71,20 115,39 44,19 127,47 185,62 166,44 310,106 245,106 -9,0 -70,-18 -136,-41 -138,-47 -162,-46 -129,4 43,64 72,138 91,234 31,155 81,227 207,302 53,31 138,97 215,167 70,63 127,111 127,106 0,-25 259,-533 260,-509 0,9 -29,75 -64,145 -67,131 -176,369 -176,383 0,5 67,77 148,161 279,288 553,591 607,671 l 33,48 6,-38 c 11,-62 58,-176 82,-200 19,-19 27,-21 54,-13 18,5 41,16 50,25 16,14 18,14 23,-4 6,-25 50,-53 82,-53 31,0 76,28 82,53 3,10 7,19 8,19 2,0 17,-14 35,-30 52,-49 108,-52 151,-9 26,26 19,64 -19,99 -36,32 -56,65 -76,123 -15,46 -15,47 8,70 13,13 27,43 31,66 7,40 11,45 59,66 31,14 82,25 130,29 183,16 286,99 286,232 v 50 l 63,31 c 34,17 78,36 97,42 46,15 51,19 150,131 46,52 145,162 220,243 74,82 142,159 150,173 8,13 19,24 25,24 6,0 61,-55 122,-122 z m 1195,-583 c 43,-49 78,-92 78,-96 0,-3 -19,-14 -42,-25 -54,-24 -179,-147 -207,-202 -13,-24 -31,-76 -41,-115 -15,-61 -19,-68 -25,-46 -16,62 56,217 141,304 30,30 60,55 67,55 19,0 85,59 67,60 -20,0 -84,-43 -133,-89 -76,-71 -156,-207 -157,-266 0,-30 -1,-30 -48,25 -26,30 -146,165 -267,300 -121,135 -233,262 -249,283 l -29,37 57,86 c 32,48 52,83 46,79 -7,-4 1,12 16,36 42,66 56,81 64,68 5,-7 9,-5 13,6 4,9 3,13 -3,10 -29,-18 1,29 34,55 18,13 19,13 11,0 -8,-13 -7,-13 9,-1 9,8 15,21 12,30 -7,21 483,-476 586,-594 z m -2183,535 c -51,-58 -59,-66 -59,-54 0,6 101,114 107,114 2,0 -19,-27 -48,-60 z m -384,-40 c -3,-5 0,-7 9,-4 10,4 16,-5 22,-28 4,-18 7,-37 5,-43 -7,-24 -5,-30 7,-27 17,3 15,-15 -4,-22 -10,-4 -13,-2 -8,6 4,7 3,8 -5,4 -6,-4 -9,-11 -7,-15 3,-4 -10,-22 -28,-40 l -33,-32 -8,82 c -5,60 -11,87 -23,95 -18,13 -14,17 33,27 35,8 46,7 40,-3 z m -100,-63 c 4,-13 5,-47 3,-77 l -3,-53 -83,-44 c -46,-23 -89,-43 -96,-43 -6,0 -33,34 -60,75 -27,41 -52,75 -57,75 -5,0 -9,4 -9,9 0,13 74,40 165,61 112,26 133,25 140,-3 z m 555,-1 c 0,-2 2,-11 6,-19 3,-10 -8,-18 -41,-27 -25,-7 -48,-17 -51,-21 -12,-20 -24,-7 -24,25 0,33 2,35 38,39 68,7 72,7 72,3 z m 102,-106 c 58,-68 131,-190 115,-190 -2,0 -20,26 -40,58 -20,31 -49,71 -64,87 -56,60 -83,97 -83,113 1,13 7,9 26,-13 14,-16 34,-41 46,-55 z m -245,64 c -3,-4 -2,-15 3,-25 7,-13 6,-22 -6,-33 -18,-18 -17,-18 -38,-10 -9,3 -16,10 -16,16 0,17 35,57 49,58 8,0 11,-3 8,-6 z m 153,-35 c 0,-19 -2,-20 -17,-8 -15,12 -16,12 -9,-6 8,-20 10,-38 7,-62 -2,-18 -32,-16 -59,3 -31,22 -29,60 6,78 41,23 72,20 72,-5 z m -886,-44 c 9,-13 16,-29 16,-34 0,-13 -71,-62 -81,-56 -4,3 -5,-5 -1,-17 4,-19 -3,-15 -39,19 -42,41 -43,43 -24,58 20,16 94,54 106,55 4,0 14,-11 23,-25 z m 641,-5 c -3,-5 -11,-10 -16,-10 -6,0 -7,5 -4,10 3,6 11,10 16,10 6,0 7,-4 4,-10 z m -598,-32 c -3,-8 -6,-5 -6,6 -1,11 2,17 5,13 3,-3 4,-12 1,-19 z m 573,8 c 0,-2 -8,-10 -17,-17 -16,-13 -17,-12 -4,4 13,16 21,21 21,13 z m -723,-96 c -1,-14 -5,-16 -13,-9 -9,8 -11,5 -7,-10 3,-12 1,-21 -6,-21 -6,0 -11,-8 -11,-17 0,-15 2,-16 10,-3 5,8 10,11 10,6 0,-4 -12,-22 -27,-40 l -28,-31 -42,15 c -24,8 -43,18 -43,23 0,4 21,41 47,81 l 47,74 32,-25 c 18,-14 32,-33 31,-43 z m 123,31 c -14,-28 -30,-35 -43,-21 -9,9 -7,15 7,26 30,21 49,19 36,-5 z m 660,-11 c -6,-12 -14,-19 -17,-17 -2,3 1,15 7,27 6,12 14,19 17,17 2,-3 -1,-15 -7,-27 z m -155,-20 c -21,-22 -44,-40 -50,-40 -9,0 74,79 85,80 2,0 -14,-18 -35,-40 z m 312,23 c 10,-10 14,-15 9,-10 -25,18 -56,5 -100,-44 -48,-54 -66,-56 -66,-9 0,62 110,106 157,63 z m 3,-37 c 0,-7 -13,-19 -30,-26 -16,-7 -35,-18 -41,-26 -14,-17 -29,-18 -29,-1 0,17 61,66 83,67 9,0 17,-6 17,-14 z m -727,-13 c -7,-2 -19,-2 -25,0 -7,3 -2,5 12,5 14,0 19,-2 13,-5 z m 3387,-43 c 0,-35 -25,-41 -33,-8 -7,26 -1,38 19,38 9,0 14,-11 14,-30 z m -3250,10 c 0,-16 -61,-80 -92,-96 -16,-8 -38,-12 -48,-9 -12,4 -20,2 -20,-4 0,-6 -7,-11 -17,-11 -15,0 -15,1 0,18 32,35 17,36 -19,1 -46,-43 -92,-115 -128,-199 -16,-36 -37,-74 -47,-85 -19,-19 -19,-19 -19,18 0,21 7,52 17,70 9,18 15,47 15,66 -1,28 7,44 47,86 26,28 54,67 60,88 7,20 15,37 17,37 3,0 23,-9 45,-20 43,-23 57,-19 112,26 28,24 77,33 77,14 z m 401,-21 c 6,-12 9,-30 6,-40 -3,-10 -1,-17 3,-14 8,5 30,-24 30,-38 0,-2 -18,-12 -40,-22 -22,-10 -40,-24 -40,-30 0,-7 -7,-18 -15,-25 -10,-9 -15,-9 -15,-1 0,6 5,11 10,11 6,0 10,9 10,20 0,18 -4,16 -30,-12 l -29,-33 -1,25 c 0,16 -3,21 -8,12 -5,-6 -35,-19 -68,-28 -112,-31 -104,-33 -104,24 0,36 -4,52 -16,56 -23,9 -9,22 43,40 33,11 50,13 57,6 8,-8 6,-14 -4,-21 -13,-9 -13,-10 0,-8 28,3 37,-1 64,-27 14,-15 26,-22 26,-16 0,5 -16,24 -35,41 -19,17 -35,34 -35,39 0,12 44,30 87,36 17,2 39,9 50,15 27,16 41,13 54,-10 z m 2799,14 c 0,-17 -16,-29 -40,-30 -14,-1 -40,-5 -57,-8 -26,-5 -33,-2 -33,9 0,9 12,18 28,22 15,3 32,7 37,9 20,7 65,5 65,-2 z m -3493,-35 c -3,-8 -6,-5 -6,6 -1,11 2,17 5,13 3,-3 4,-12 1,-19 z m -27,-13 c 0,-8 -9,-19 -20,-25 -23,-12 -25,-8 -8,20 15,24 28,26 28,5 z m 880,5 c 0,-5 -10,-10 -22,-9 -22,0 -22,1 -3,9 11,5 21,9 23,9 1,1 2,-3 2,-9 z m -1050,-23 c 24,-8 36,-19 37,-35 2,-12 -2,-22 -7,-22 -6,0 -10,-5 -10,-11 0,-5 5,-7 10,-4 15,9 12,-12 -5,-45 -18,-36 -25,-38 -18,-7 4,18 3,19 -6,7 -6,-8 -11,-23 -11,-32 0,-23 -48,-25 -57,-2 -3,9 2,41 11,72 10,32 17,65 17,75 0,9 1,17 2,17 1,0 18,-6 37,-13 z m 519,-43 c 17,-4 31,-11 31,-16 0,-13 -78,-46 -128,-54 -23,-4 -45,-11 -48,-15 -9,-14 -51,-10 -64,6 -7,9 -11,17 -9,18 2,1 33,17 69,34 67,33 94,38 149,27 z m -229,-55 c 0,-12 -4,-17 -11,-13 -7,4 -9,-2 -7,-17 2,-15 14,-26 38,-34 29,-10 35,-17 35,-40 0,-25 -9,-33 -79,-71 -43,-24 -81,-44 -83,-44 -3,0 -2,8 2,18 4,9 7,27 6,40 -1,30 16,62 34,62 7,0 17,5 21,12 5,8 2,9 -9,5 -11,-4 -17,-1 -17,7 0,8 7,16 15,20 8,3 15,12 15,21 0,18 22,55 32,55 5,0 8,-9 8,-21 z m 3269,0 c 58,-20 25,-35 -34,-16 -12,4 -52,3 -90,-3 -39,-5 -79,-11 -90,-12 -12,-2 -20,3 -20,12 0,33 157,46 234,19 z m -3009,-14 c 0,-11 -11,-15 -39,-15 -22,0 -48,-2 -58,-5 -26,-8 14,10 52,23 42,14 45,14 45,-3 z m -143,-21 c -3,-3 -12,-4 -19,-1 -8,3 -5,6 6,6 11,1 17,-2 13,-5 z m 3510,-29 c 77,-18 182,-65 206,-92 17,-20 17,-20 -34,-26 -28,-4 -54,-8 -56,-10 -2,-3 17,-44 42,-93 25,-49 50,-116 56,-149 17,-89 6,-287 -19,-355 -11,-30 -21,-50 -21,-44 -1,6 6,31 15,55 8,24 18,93 21,154 8,167 -26,285 -110,380 -28,31 -35,35 -30,18 8,-35 -22,-29 -72,15 -24,21 -73,52 -110,70 -41,20 -63,37 -59,44 5,8 -10,9 -54,5 -62,-5 -86,7 -34,19 15,3 38,10 52,14 40,13 140,11 207,-5 z m -3474,-9 c 7,-16 -16,-39 -43,-43 -13,-2 -19,5 -22,27 -4,28 -2,30 28,30 18,0 34,-6 37,-14 z m 107,-11 c 0,-9 -9,-15 -25,-15 -29,0 -34,16 -7,23 30,8 32,7 32,-8 z m 2914,6 c 4,-5 -10,-19 -29,-31 -19,-12 -32,-27 -29,-32 4,-7 2,-8 -4,-4 -18,11 -97,-50 -142,-110 -54,-69 -121,-239 -129,-326 -4,-37 -10,-70 -14,-75 -15,-15 -42,15 -54,58 -24,91 -9,198 41,298 46,91 172,182 296,215 30,8 56,15 57,15 1,1 4,-3 7,-8 z m -3498,-28 c -4,-9 -1,-20 6,-25 8,-6 2,-8 -17,-6 -22,2 -31,9 -33,26 -3,18 1,22 23,22 21,0 26,-4 21,-17 z m 3594,9 c 0,-6 -66,-30 -103,-36 -54,-10 -39,10 21,28 43,13 82,17 82,8 z m -2923,-21 c -1,-15 -4,-17 -14,-9 -17,14 -16,28 1,28 8,0 14,-9 13,-19 z m 3124,-31 c 67,-25 155,-90 152,-114 0,-10 2,-15 5,-12 12,13 82,-126 82,-164 0,-7 -110,-34 -114,-28 -2,1 -20,35 -40,74 -20,39 -53,86 -73,105 l -37,34 27,-34 c 15,-18 35,-47 43,-65 13,-25 4,-19 -44,30 -74,75 -148,114 -211,113 -45,-1 -46,-1 -11,-8 51,-11 90,-34 128,-75 49,-54 94,-124 87,-136 -3,-5 -1,-10 6,-10 7,0 9,-3 6,-6 -4,-4 -13,-2 -20,4 -8,7 -18,8 -22,4 -5,-4 -6,0 -3,8 5,13 -6,14 -64,12 -58,-3 -72,-1 -84,15 -13,16 -13,14 0,-13 14,-29 16,-30 78,-27 43,2 57,0 43,-6 -11,-5 -31,-7 -45,-4 -20,4 -22,2 -10,-6 12,-8 8,-10 -17,-7 -18,2 -34,-1 -36,-7 -2,-6 -13,13 -25,41 -31,73 -119,134 -194,136 -21,0 -38,4 -38,8 0,14 89,59 176,88 57,20 75,29 51,26 -47,-6 -46,11 4,37 42,22 121,17 200,-13 z m -3757,-31 c 14,-72 4,-159 -19,-159 -7,0 -16,-8 -19,-17 -11,-27 -24,2 -31,67 -3,30 -8,74 -11,98 l -5,42 h 39 c 36,0 40,-3 46,-31 z m 3440,9 c -3,-7 -31,-30 -62,-51 -31,-21 -77,-54 -101,-75 -53,-45 -41,-15 16,39 76,72 162,123 147,87 z m -3104,-2 c 0,-2 -18,-18 -40,-36 -31,-25 -43,-29 -57,-21 -17,10 -16,10 3,11 11,0 35,11 54,25 34,25 40,28 40,21 z m 172,-104 c -3,-59 1,-93 17,-148 26,-90 26,-94 -4,-94 -13,0 -34,-10 -46,-22 l -23,-23 18,28 c 18,29 16,38 -16,74 -14,15 -21,41 -24,85 -4,47 -10,67 -26,81 -17,14 -18,17 -3,17 9,0 33,18 52,40 53,59 60,54 55,-38 z m -2463,-25 c 19,-45 72,-167 118,-272 45,-104 83,-195 83,-202 0,-13 -31,-33 -50,-33 -6,0 -14,10 -19,23 -11,27 -122,261 -199,417 -32,63 -58,117 -60,121 -4,8 45,27 73,28 16,1 27,-16 54,-82 z m -82,-74 c 94,-196 190,-406 197,-429 4,-15 2,-24 -8,-27 -20,-8 -28,4 -121,213 -23,52 -68,151 -99,219 -52,112 -62,151 -38,151 5,0 36,-57 69,-127 z m 2183,79 c -1,-20 -29,-85 -41,-92 -7,-5 -10,-12 -6,-16 4,-4 -7,-21 -25,-37 -19,-19 -24,-28 -13,-23 18,7 18,6 1,-13 -10,-11 -23,-18 -27,-15 -5,3 -9,-1 -9,-8 0,-7 -39,-54 -88,-104 -48,-49 -119,-125 -159,-168 l -72,-78 -39,33 -40,33 67,75 c 148,167 218,241 314,336 80,79 106,99 120,92 9,-4 17,-11 17,-15 z m 100,18 c 0,-5 -4,-10 -10,-10 -5,0 -10,5 -10,10 0,6 5,10 10,10 6,0 10,-4 10,-10 z m 3813,-80 c 14,-36 28,-80 32,-98 7,-32 6,-33 -21,-30 -25,3 -31,12 -60,86 -18,46 -38,89 -44,97 -9,11 -5,14 22,17 18,2 36,1 40,-2 4,-3 18,-34 31,-70 z m -621,18 c 45,-13 97,-70 124,-134 9,-21 19,-75 21,-119 5,-72 3,-86 -20,-131 -33,-65 -88,-118 -138,-133 -33,-10 -50,-9 -94,4 -136,39 -208,178 -171,326 20,78 38,104 100,147 74,49 116,59 178,40 z m -3062,-18 c 11,-7 4,-10 -25,-10 -29,0 -36,3 -25,10 8,5 20,10 25,10 6,0 17,-5 25,-10 z m -13,-86 c -3,-3 -12,-4 -19,-1 -8,3 -5,6 6,6 11,1 17,-2 13,-5 z m -53,-19 c -25,-19 -40,-19 -24,0 7,8 20,15 28,15 13,0 12,-3 -4,-15 z m 91,-25 c 4,-6 -5,-7 -24,-4 -23,5 -30,2 -34,-12 -4,-16 -5,-15 -6,4 -1,18 4,22 28,22 17,0 33,-4 36,-10 z m 325,-34 c 0,-2 -7,-6 -15,-10 -8,-3 -15,-1 -15,4 0,6 7,10 15,10 8,0 15,-2 15,-4 z m -367,-31 c -3,-9 -8,-14 -10,-11 -3,3 -2,9 2,15 9,16 15,13 8,-4 z m 207,-29 c 0,-2 -8,-10 -17,-17 -16,-13 -17,-12 -4,4 13,16 21,21 21,13 z m -60,-39 c 11,-5 9,-6 -4,-4 -11,1 -21,9 -23,17 -3,10 -2,11 4,4 4,-6 15,-14 23,-17 z m -560,-32 c 0,-3 -25,-30 -55,-61 -30,-31 -55,-53 -55,-48 0,7 100,114 107,114 2,0 3,-2 3,-5 z m 3194,-74 c 9,-27 30,-70 46,-94 16,-25 25,-49 22,-53 -4,-4 -2,-4 4,-1 6,4 20,-3 30,-14 45,-50 209,-101 268,-83 15,4 18,3 11,-5 -17,-17 -116,-24 -164,-11 -27,7 -61,28 -92,57 -48,45 -75,52 -51,13 20,-33 5,-23 -72,44 -41,35 -83,69 -95,76 l -22,11 22,37 c 52,87 68,91 93,23 z m -4004,15 c 0,-9 -65,-40 -182,-86 -101,-39 -214,-84 -253,-101 -38,-17 -169,-68 -290,-114 -343,-129 -434,-165 -500,-195 -42,-18 -308,-119 -525,-197 -69,-25 -126,-47 -128,-48 -2,-2 25,-58 59,-126 34,-68 97,-198 139,-289 69,-147 139,-293 335,-705 57,-120 143,-303 257,-550 34,-71 83,-177 110,-235 340,-720 458,-975 458,-994 0,-14 -37,-42 -45,-34 -1,2 -34,73 -73,158 -62,138 -133,290 -222,475 -16,33 -66,139 -111,235 -434,930 -663,1416 -768,1635 -50,105 -115,241 -143,303 l -53,112 -37,-5 c -21,-3 -38,-3 -38,-1 0,7 209,92 430,176 183,70 241,93 345,135 154,64 466,187 575,227 74,27 140,53 145,58 6,4 44,19 85,33 41,14 147,53 235,86 169,63 195,70 195,47 z m -566,-43 c 19,-56 20,-83 4,-83 -17,0 -139,-52 -134,-57 2,-2 36,8 77,22 75,26 111,32 94,16 -6,-5 -102,-41 -215,-81 -113,-40 -241,-85 -285,-101 -44,-16 -87,-28 -95,-29 -8,0 -28,22 -43,50 -15,27 -33,52 -39,56 -6,4 3,-19 20,-51 38,-69 38,-71 12,-85 -17,-9 -22,-7 -31,17 -5,15 -19,47 -31,71 -11,24 -19,45 -16,47 5,5 248,106 343,142 44,17 125,49 180,71 133,54 139,53 159,-5 z m 1074,-66 22,-24 -30,-27 c -18,-15 -28,-32 -24,-39 4,-7 -6,0 -21,15 l -28,27 24,35 c 13,20 27,36 30,36 3,0 15,-10 27,-23 z m 3392,3 c 41,-21 146,-120 195,-184 l 27,-36 -38,-48 c -22,-26 -91,-108 -154,-182 -64,-74 -138,-163 -165,-197 -131,-162 -401,-472 -412,-472 -6,-1 -19,9 -27,21 -9,13 -61,69 -117,125 -55,57 -99,107 -97,112 2,5 41,54 87,108 46,54 91,107 100,118 9,11 120,142 246,290 127,149 248,291 269,318 21,26 40,47 43,47 2,0 22,-9 43,-20 z m 1036,-67 c -8,-15 -15,-25 -16,-21 0,12 23,58 27,54 3,-2 -2,-17 -11,-33 z m -4384,17 c 3,-24 3,-30 -2,-27 -3,1 -18,-6 -33,-16 -33,-21 -34,-16 -5,23 22,31 37,38 40,20 z m -113,-41 c 20,-26 21,-35 12,-56 -6,-13 -8,-30 -4,-36 5,-8 2,-8 -9,0 -19,16 -32,5 -16,-14 9,-11 8,-13 -2,-11 -8,2 -14,-2 -15,-9 0,-6 -4,-15 -9,-20 -6,-5 -6,-2 -1,7 8,13 6,13 -8,1 -9,-7 -15,-17 -12,-21 3,-4 -3,-14 -12,-21 -14,-12 -16,-12 -9,0 6,9 5,12 -3,10 -7,-3 -12,-8 -12,-12 1,-13 -44,-53 -54,-49 -5,3 -7,1 -2,-3 4,-5 -1,-17 -10,-27 -17,-19 -18,-19 -35,4 -14,19 -18,20 -18,6 0,-9 5,-20 10,-23 17,-10 12,-21 -27,-59 -47,-45 -58,-38 -13,9 18,19 31,37 29,40 -3,2 -77,-72 -164,-166 -154,-165 -215,-222 -215,-200 0,18 555,681 571,681 3,0 16,-14 28,-31 z m 3909,-16 c -6,-7 -14,-10 -19,-7 -15,9 -10,20 10,20 15,0 17,-3 9,-13 z m -220,-53 c 13,-16 21,-30 19,-30 -2,0 -16,14 -30,30 -15,17 -23,30 -19,30 5,0 18,-13 30,-30 z m -5380,-42 c 34,-74 35,-83 10,-96 -13,-6 -37,-20 -55,-32 l -32,-21 -25,43 c -13,24 -30,56 -35,71 -11,27 -9,29 42,52 28,13 57,24 63,24 7,1 21,-18 32,-41 z m 5419,-57 c 16,-16 50,-39 76,-51 l 48,-23 -34,-36 c -36,-38 -355,-418 -443,-527 -28,-35 -77,-93 -110,-130 -32,-37 -83,-97 -112,-134 l -54,-67 -51,19 c -58,22 -107,54 -107,70 0,6 66,88 148,182 81,94 179,209 217,256 39,47 137,163 218,259 82,96 154,183 160,193 7,10 13,18 14,18 2,0 15,-13 30,-29 z M 3405,5752 c -104,-100 -204,-186 -210,-180 -3,3 18,27 47,54 29,27 81,80 116,117 66,70 79,79 68,50 -5,-12 3,-8 21,10 15,15 30,27 33,27 3,0 -31,-35 -75,-78 z M 1364,5518 c 22,-46 101,-211 177,-368 124,-260 337,-711 484,-1030 31,-69 119,-255 195,-415 76,-159 162,-344 193,-410 30,-66 78,-167 105,-225 91,-192 162,-351 162,-364 0,-17 -57,-26 -69,-12 -15,19 -116,224 -209,427 -49,107 -156,334 -237,504 -81,171 -159,335 -173,365 -36,79 -371,794 -571,1218 -94,199 -171,369 -171,377 0,11 11,15 38,15 37,0 38,-1 76,-82 z m 1696,-57 c 0,-5 -11,-12 -25,-15 -34,-9 -95,-46 -95,-58 0,-6 -7,-7 -16,-4 -8,3 -13,2 -10,-3 3,-5 -4,-12 -17,-16 -12,-4 -25,-8 -29,-10 -5,-1 -15,-3 -24,-4 -13,-1 -14,-4 -5,-15 9,-11 8,-15 -5,-20 -10,-4 -14,-13 -11,-26 3,-11 1,-23 -4,-26 -5,-3 -9,7 -10,23 0,27 0,28 -10,5 -5,-13 -7,-28 -4,-33 4,-5 -2,-6 -11,-2 -12,4 -15,3 -10,-5 4,-7 0,-19 -8,-28 -15,-14 -16,-12 -16,26 0,66 43,135 105,168 35,18 150,51 183,51 12,1 22,-3 22,-8 z m 3550,-335 c 0,-11 -50,-73 -169,-206 -51,-58 -161,-186 -244,-285 -83,-99 -207,-244 -275,-322 l -124,-141 -41,29 c -86,62 -220,75 -320,31 -26,-12 -47,-16 -47,-11 0,21 34,76 80,129 26,30 82,98 124,150 104,128 140,170 215,248 35,37 109,121 165,187 55,66 165,196 245,289 l 145,169 123,-129 c 67,-71 122,-133 123,-138 z m -3700,231 c 0,-2 -15,-18 -34,-36 -24,-24 -36,-29 -41,-20 -5,7 -4,10 2,6 5,-4 23,7 38,23 27,28 35,34 35,27 z m 25,-204 c -3,-16 -10,-32 -15,-37 -5,-5 -4,7 2,27 13,43 23,50 13,10 z m 3725,-64 c 9,-17 8,-23 -7,-35 -10,-7 -13,-14 -7,-14 5,0 16,6 23,13 11,10 14,9 18,-1 3,-6 9,-10 13,-7 5,3 25,-3 45,-14 20,-10 32,-21 28,-23 -4,-1 -20,-17 -34,-35 -15,-18 -30,-29 -33,-26 -3,4 -6,-1 -6,-9 0,-8 -33,-53 -72,-100 -40,-47 -115,-135 -167,-196 -53,-63 -99,-109 -105,-105 -6,3 -8,3 -4,-2 11,-12 -31,-66 -45,-59 -7,4 -9,4 -5,-1 10,-10 -31,-67 -43,-59 -5,3 -8,1 -7,-5 3,-9 -102,-141 -200,-250 l -48,-54 -57,23 c -56,23 -56,24 -39,44 15,18 14,18 -12,-2 -33,-25 -69,-29 -64,-8 3,14 144,184 453,546 83,96 162,190 178,209 23,28 32,32 55,26 25,-6 26,-5 8,8 -18,13 -16,17 40,85 33,39 64,71 71,72 7,0 17,-9 23,-21 z m -922,-387 c -11,-27 -106,-132 -123,-136 -11,-2 -51,-10 -90,-16 -127,-23 -321,-105 -439,-187 l -59,-41 -81,28 c -121,43 -157,60 -151,70 3,5 31,16 63,25 57,16 177,54 587,183 270,86 302,94 293,74 z m -174,-214 c -28,-29 -72,-78 -98,-109 -33,-40 -71,-71 -129,-103 -80,-46 -159,-103 -124,-90 18,7 24,-10 7,-21 -6,-4 -8,-11 -4,-16 3,-6 -3,-13 -15,-16 -12,-3 -21,-10 -21,-15 0,-5 -16,-29 -35,-52 -19,-24 -35,-48 -35,-54 0,-20 -62,-172 -72,-178 -6,-4 -8,-2 -4,4 3,6 2,13 -4,17 -5,3 -10,-1 -10,-10 0,-9 -4,-13 -10,-10 -5,3 -10,-4 -10,-16 0,-16 -3,-19 -13,-11 -10,8 -17,-3 -32,-51 -10,-34 -23,-68 -29,-76 -8,-11 -8,-13 2,-7 6,4 12,2 12,-3 0,-6 -6,-11 -12,-12 -9,0 -9,-2 1,-6 11,-5 11,-7 0,-14 -10,-6 -11,-9 -1,-9 6,0 12,-5 12,-10 0,-12 -42,-4 -82,17 -26,13 -28,17 -27,76 2,54 3,57 8,22 5,-32 8,-36 14,-21 7,18 9,18 24,3 14,-14 14,-18 2,-34 -13,-16 -12,-17 4,-4 12,9 15,21 11,35 -7,21 -7,21 15,2 22,-20 22,-20 15,0 -4,10 -11,24 -16,30 -19,26 43,213 101,305 21,32 41,56 46,52 4,-5 5,-2 0,6 -6,10 -13,6 -31,-15 -40,-50 -103,-179 -118,-244 -8,-34 -17,-64 -20,-67 -3,-3 -17,2 -32,12 -26,17 -27,20 -21,89 19,252 223,488 514,595 83,30 197,59 243,60 22,1 20,-3 -26,-51 z m 1311,-88 c 51,-16 180,-54 287,-85 189,-55 415,-128 451,-147 18,-9 18,-10 0,-23 -36,-24 -398,-147 -438,-148 -22,0 -71,11 -110,26 -38,15 -144,50 -235,78 -91,27 -189,57 -218,66 l -52,16 47,51 c 27,28 75,84 108,124 32,39 61,72 63,72 3,0 47,-13 97,-30 z M 4810,4240 c -8,-5 -179,-64 -380,-131 -201,-67 -396,-132 -433,-146 -38,-13 -71,-23 -73,-20 -8,8 228,94 526,192 162,53 306,100 320,105 14,5 32,9 40,9 13,1 13,0 0,-9 z m 877,-30 c 24,-10 63,-36 88,-57 26,-21 52,-37 58,-36 29,6 113,-64 159,-132 58,-87 68,-121 67,-226 l -1,-84 -14,64 c -15,70 -52,140 -118,225 -61,79 -108,113 -189,137 -132,39 -224,35 -347,-15 -54,-21 -60,-22 -60,-6 0,27 56,97 92,116 85,45 183,50 265,14 z m -433,-15 c -4,-8 -11,-12 -16,-9 -6,4 -5,10 3,15 19,12 19,11 13,-6 z m 451,-111 c 22,-9 52,-25 67,-35 34,-24 81,-106 66,-115 -6,-4 -8,-3 -5,3 3,5 -5,22 -18,39 -23,29 -25,29 -122,29 -96,0 -100,-1 -185,-43 -48,-24 -92,-50 -99,-58 -7,-9 14,1 47,20 111,66 222,91 289,66 27,-10 27,-10 7,-28 -20,-18 -49,-88 -32,-77 6,4 10,1 10,-5 0,-6 4,-9 9,-6 5,4 15,-7 23,-24 7,-16 18,-30 25,-30 6,0 15,-5 19,-11 5,-8 -1,-10 -20,-7 -14,3 -29,1 -32,-3 -3,-5 -10,-9 -15,-9 -6,0 -8,4 -5,8 2,4 -3,9 -12,10 -126,14 -145,14 -187,-3 -94,-36 -165,-140 -165,-244 v -36 h -84 c -46,0 -87,3 -91,7 -4,4 4,45 18,90 25,79 62,149 103,193 11,11 25,29 33,40 7,11 -8,-2 -33,-29 -58,-60 -91,-116 -122,-204 -13,-37 -27,-66 -31,-66 -14,2 -33,48 -33,80 0,75 41,155 148,286 36,44 32,41 -23,-17 -37,-38 -78,-91 -91,-117 -29,-56 -54,-149 -54,-196 0,-29 -3,-33 -22,-30 -55,8 -24,189 52,307 116,179 396,286 565,215 z m 1725,-209 c 251,-82 332,-108 493,-155 81,-24 143,-48 139,-52 -5,-5 -87,-36 -183,-69 -96,-34 -322,-113 -504,-176 -181,-63 -418,-146 -525,-183 -107,-38 -226,-80 -265,-94 -38,-14 -82,-26 -97,-26 -14,0 -64,16 -110,36 -124,53 -593,238 -671,264 l -68,23 -40,-22 c -22,-13 -43,-21 -46,-18 -9,9 57,39 187,84 252,88 1316,444 1365,457 59,16 79,11 325,-69 z m -3361,-6 c 108,-33 428,-134 711,-224 283,-90 547,-173 587,-184 40,-12 74,-25 77,-30 3,-4 -138,-78 -313,-165 -265,-131 -322,-156 -347,-151 -37,9 -80,21 -294,88 -292,92 -428,133 -595,182 -88,26 -239,70 -335,100 -96,29 -223,68 -282,86 -60,18 -108,35 -108,39 0,11 660,312 699,319 3,1 93,-26 200,-60 z m 1840,-84 c 0,-5 -4,-3 -9,5 -5,8 -9,22 -9,30 0,16 17,-16 18,-35 z m -114,-6 c 11,-17 2,-18 -19,-3 -17,12 -17,14 -4,14 9,0 20,-5 23,-11 z m -3702,-67 c 10,-23 17,-58 17,-76 0,-35 -55,-390 -110,-716 -18,-102 -36,-210 -40,-240 -5,-30 -20,-118 -34,-196 -14,-77 -32,-191 -40,-253 -8,-62 -16,-114 -18,-116 -2,-1 -13,1 -25,6 -28,10 -28,11 -3,179 11,74 38,257 60,405 55,378 97,661 119,790 10,61 25,147 32,193 7,45 16,79 19,75 4,-5 14,-27 23,-51 z m 3757,54 c 0,-2 -8,-10 -17,-17 -16,-13 -17,-12 -4,4 13,16 21,21 21,13 z m 60,-20 c 0,-3 -4,-8 -10,-11 -5,-3 -10,-1 -10,4 0,6 5,11 10,11 6,0 10,-2 10,-4 z m -330,-89 c 0,-2 -15,-16 -32,-33 l -33,-29 29,33 c 28,30 36,37 36,29 z M 3767,3399 c 29,-11 417,-132 563,-175 47,-14 110,-33 140,-43 30,-11 108,-36 174,-57 85,-27 113,-40 100,-45 -11,-4 8,-6 41,-4 42,2 75,11 110,29 l 50,27 -28,-25 c -15,-14 -35,-26 -43,-26 -8,0 -14,-4 -14,-10 0,-5 -15,-11 -32,-11 l -33,-1 30,-8 30,-8 -32,-1 c -17,0 -35,-6 -38,-11 -4,-6 -11,-8 -16,-4 -5,3 -7,9 -5,13 3,4 -9,12 -25,18 l -30,12 30,-31 c 18,-19 36,-28 45,-25 9,4 16,2 16,-2 0,-5 -4,-11 -9,-13 -5,-2 -4,-10 2,-18 16,-21 196,-153 227,-167 50,-22 81,-33 90,-33 6,0 10,37 10,82 0,99 9,97 17,-4 6,-82 11,-91 56,-108 41,-15 65,-25 100,-39 15,-6 32,-11 37,-11 6,0 11,75 12,183 1,100 3,164 5,142 3,-22 10,-43 16,-47 9,-6 9,-8 0,-8 -15,0 -17,-57 -7,-198 6,-78 10,-92 24,-92 11,0 20,11 25,28 9,39 66,152 76,152 5,0 9,14 9,31 0,17 4,28 10,24 12,-7 14,-1755 3,-1755 -10,0 -1763,587 -1768,591 -7,8 -12,1659 -4,1659 4,0 20,-5 36,-11 z M 5561,2247 c -1,-695 -6,-1086 -12,-1092 -11,-10 -12,2119 -2,2163 3,13 8,20 11,17 3,-3 5,-492 3,-1088 z m -3252,987 c 18,-37 34,-77 35,-89 0,-13 4,-21 7,-19 4,2 50,-83 103,-190 110,-220 166,-307 195,-301 25,5 49,-23 57,-63 5,-24 3,-32 -7,-32 -8,0 -31,-3 -51,-6 l -38,-7 -111,229 c -222,457 -259,544 -231,544 5,0 23,-30 41,-66 z m 3088,-181 c -1,-43 -3,-8 -3,77 0,85 2,120 3,78 2,-43 2,-113 0,-155 z m -482,17 c -3,-5 -11,-10 -16,-10 -6,0 -7,5 -4,10 3,6 11,10 16,10 6,0 7,-4 4,-10 z m 475,-360 c 0,-5 -4,-10 -10,-10 -5,0 -10,5 -10,10 0,6 5,10 10,10 6,0 10,-4 10,-10 z M 2735,2609 c 23,-68 15,-70 -11,-3 -12,30 -18,54 -14,54 5,0 16,-23 25,-51 z m -15,-114 c 0,-8 5,-17 12,-21 7,-4 8,-3 4,5 -4,6 0,14 10,18 10,4 19,2 21,-4 2,-6 14,-9 26,-6 15,3 13,0 -7,-9 l -29,-14 27,-17 c 15,-10 25,-25 24,-35 -2,-9 5,-18 15,-20 15,-3 18,1 13,20 l -6,23 12,-23 c 9,-19 9,-25 -3,-33 -12,-8 -11,-11 3,-23 10,-7 14,-16 8,-22 -11,-12 0,-65 12,-58 6,4 8,-1 4,-14 -4,-12 -2,-23 5,-28 8,-4 9,-3 5,4 -4,7 -2,20 4,29 10,17 10,16 8,-2 -2,-12 2,-19 9,-18 16,4 48,-70 33,-75 -5,-2 -7,-8 -4,-13 3,-6 10,-6 17,-1 16,12 51,-25 55,-58 1,-13 9,-31 16,-39 8,-9 17,-27 21,-40 6,-18 4,-22 -6,-16 -8,5 -4,-3 9,-17 12,-13 19,-28 15,-31 -3,-4 -1,-7 5,-7 9,0 35,-58 30,-70 -1,-3 6,-14 16,-26 31,-36 196,-417 190,-439 -4,-16 -3,-17 5,-5 9,12 11,12 17,-3 3,-9 3,-25 -1,-34 -6,-17 -7,-17 -21,1 -8,11 -14,16 -14,11 0,-5 7,-17 16,-27 14,-14 14,-20 4,-33 -16,-20 -29,-19 -37,3 -7,20 -44,101 -106,232 -25,52 -57,124 -72,160 -40,96 -133,290 -140,290 -3,0 -2,-8 3,-17 13,-24 56,-119 104,-228 22,-49 52,-117 68,-150 94,-202 133,-302 124,-316 -8,-13 -40,-11 -52,4 -5,6 -98,201 -205,432 -107,231 -231,496 -276,589 -44,93 -81,170 -81,172 0,3 28,9 62,11 18,1 28,-3 28,-12 z m 183,-192 c -4,-10 -2,-14 4,-10 11,7 28,-22 18,-31 -3,-3 -5,0 -5,7 0,7 -4,10 -9,7 -11,-7 -23,22 -15,35 9,15 14,10 7,-8 z m 52,-93 c 3,-5 1,-10 -4,-10 -6,0 -11,5 -11,10 0,6 2,10 4,10 3,0 8,-4 11,-10 z"
       id="path132"
       style="fill:#000004;fill-opacity:1;stroke:none;stroke-opacity:1;stroke-width:17.30660721;stroke-dasharray:none" />
    <path
       d="m 6130,8818 c -50,-54 -99,-120 -58,-78 72,74 129,140 122,139 -5,0 -34,-28 -64,-61 z"
       id="path134"
       style="fill:#000004;fill-opacity:1;stroke:none;stroke-opacity:1;stroke-width:17.30660721;stroke-dasharray:none" />
    <path
       d="m 5630,8245 c -7,-9 -11,-18 -8,-20 3,-3 11,1 18,10 7,9 11,18 8,20 -3,3 -11,-1 -18,-10 z"
       id="path136"
       style="fill:#000004;fill-opacity:1;stroke:none;stroke-opacity:1;stroke-width:17.30660721;stroke-dasharray:none" />
    <path
       d="m 5574,8183 c -16,-21 -36,-47 -46,-57 -10,-11 -18,-25 -18,-30 0,-14 54,48 80,92 26,43 19,41 -16,-5 z"
       id="path138"
       style="fill:#000004;fill-opacity:1;stroke:none;stroke-opacity:1;stroke-width:17.30660721;stroke-dasharray:none" />
    <path
       d="m 5009,7573 -24,-28 28,24 c 25,23 32,31 24,31 -2,0 -14,-12 -28,-27 z"
       id="path140"
       style="fill:#000004;fill-opacity:1;stroke:none;stroke-opacity:1;stroke-width:17.30660721;stroke-dasharray:none" />
    <path
       d="m 4935,7470 c -10,-11 -14,-20 -9,-20 5,0 15,9 22,20 7,11 11,20 9,20 -2,0 -12,-9 -22,-20 z"
       id="path142"
       style="fill:#000004;fill-opacity:1;stroke:none;stroke-opacity:1;stroke-width:17.30660721;stroke-dasharray:none" />
    <path
       d="m 4874,7408 -29,-33 33,29 c 17,17 32,31 32,33 0,8 -8,1 -36,-29 z"
       id="path144"
       style="fill:#000004;fill-opacity:1;stroke:none;stroke-opacity:1;stroke-width:17.30660721;stroke-dasharray:none" />
    <path
       d="m 5882,8380 c -33,-20 -63,-73 -61,-107 0,-10 5,-4 10,13 11,37 64,92 96,100 13,4 38,3 56,0 110,-21 132,-196 33,-264 -67,-46 -146,-17 -179,67 -18,45 -44,69 -32,30 14,-47 36,-87 61,-110 21,-19 36,-24 82,-24 69,0 112,26 143,88 38,74 9,176 -61,212 -41,21 -109,19 -148,-5 z"
       id="path146"
       style="fill:#000004;fill-opacity:1;stroke:none;stroke-opacity:1;stroke-width:17.30660721;stroke-dasharray:none" />
    <path
       d="m 5695,7888 c -22,-23 -31,-35 -19,-25 11,9 24,15 27,12 4,-3 5,-2 2,2 -3,3 5,17 17,30 12,13 19,23 17,23 -3,0 -23,-19 -44,-42 z"
       id="path148"
       style="fill:#000004;fill-opacity:1;stroke:none;stroke-opacity:1;stroke-width:17.30660721;stroke-dasharray:none" />
    <path
       d="m 5384,7798 -19,-23 23,19 c 21,18 27,26 19,26 -2,0 -12,-10 -23,-22 z"
       id="path150"
       style="fill:#000004;fill-opacity:1;stroke:none;stroke-opacity:1;stroke-width:17.30660721;stroke-dasharray:none" />
    <path
       d="m 5579,7763 c -13,-16 -12,-17 4,-4 9,7 17,15 17,17 0,8 -8,3 -21,-13 z"
       id="path152"
       style="fill:#000004;fill-opacity:1;stroke:none;stroke-opacity:1;stroke-width:17.30660721;stroke-dasharray:none" />
    <path
       d="m 5430,7605 c -41,-41 -72,-76 -69,-77 2,-2 37,32 78,74 41,43 73,78 70,78 -2,0 -38,-34 -79,-75 z"
       id="path154"
       style="fill:#000004;fill-opacity:1;stroke:none;stroke-opacity:1;stroke-width:17.30660721;stroke-dasharray:none" />
    <path
       d="m 7280,7376 c 0,-2 7,-6 15,-10 8,-3 15,-1 15,4 0,6 -7,10 -15,10 -8,0 -15,-2 -15,-4 z"
       id="path156"
       style="fill:#000004;fill-opacity:1;stroke:none;stroke-opacity:1;stroke-width:17.30660721;stroke-dasharray:none" />
    <path
       d="m 3800,5256 c 0,-2 9,-23 20,-47 14,-31 20,-38 20,-22 0,30 -17,73 -30,73 -5,0 -10,-2 -10,-4 z"
       id="path158"
       style="fill:#000004;fill-opacity:1;stroke:none;stroke-opacity:1;stroke-width:17.30660721;stroke-dasharray:none" />
    <path
       d="m 3043,5195 c -17,-14 -46,-51 -63,-82 -18,-32 -39,-66 -48,-76 -8,-9 -13,-19 -11,-22 3,-2 25,28 50,67 24,40 60,87 78,105 41,39 39,43 -6,8 z"
       id="path160"
       style="fill:#000004;fill-opacity:1;stroke:none;stroke-opacity:1;stroke-width:17.30660721;stroke-dasharray:none" />
    <path
       d="m 2776,5135 c -9,-26 -7,-32 5,-12 6,10 9,21 6,23 -2,3 -7,-2 -11,-11 z"
       id="path162"
       style="fill:#000004;fill-opacity:1;stroke:none;stroke-opacity:1;stroke-width:17.30660721;stroke-dasharray:none" />
    <path
       d="m 3570,5135 c -14,-8 -32,-14 -41,-15 -8,0 -24,-7 -35,-15 -16,-12 -11,-12 31,1 28,9 57,23 65,30 18,18 12,17 -20,-1 z"
       id="path164"
       style="fill:#000004;fill-opacity:1;stroke:none;stroke-opacity:1;stroke-width:17.30660721;stroke-dasharray:none" />
    <path
       d="m 2507,4988 c -26,-27 -43,-48 -37,-48 16,0 93,75 89,86 -2,5 -26,-12 -52,-38 z"
       id="path166"
       style="fill:#000004;fill-opacity:1;stroke:none;stroke-opacity:1;stroke-width:17.30660721;stroke-dasharray:none" />
    <path
       d="m 3185,4991 c -100,-37 -112,-44 -90,-49 10,-2 21,1 23,7 2,6 7,9 12,6 4,-2 34,9 66,25 67,33 62,38 -11,11 z"
       id="path168"
       style="fill:#000004;fill-opacity:1;stroke:none;stroke-opacity:1;stroke-width:17.30660721;stroke-dasharray:none" />
    <path
       d="m 3154,4915 c -18,-13 -18,-14 4,-8 12,3 25,9 28,14 8,14 -10,11 -32,-6 z"
       id="path170"
       style="fill:#000004;fill-opacity:1;stroke:none;stroke-opacity:1;stroke-width:17.30660721;stroke-dasharray:none" />
    <path
       d="m 2695,4810 c -13,-5 -14,-9 -5,-9 8,0 24,4 35,9 13,5 14,9 5,9 -8,0 -24,-4 -35,-9 z"
       id="path172"
       style="fill:#000004;fill-opacity:1;stroke:none;stroke-opacity:1;stroke-width:17.30660721;stroke-dasharray:none" />
    <path
       d="m 3233,4803 c -15,-5 -18,-33 -4,-33 5,0 11,9 14,20 3,11 4,20 4,19 -1,0 -8,-3 -14,-6 z"
       id="path174"
       style="fill:#000004;fill-opacity:1;stroke:none;stroke-opacity:1;stroke-width:17.30660721;stroke-dasharray:none" />
    <path
       d="m 3008,4663 c 7,-3 16,-2 19,1 4,3 -2,6 -13,5 -11,0 -14,-3 -6,-6 z"
       id="path176"
       style="fill:#000004;fill-opacity:1;stroke:none;stroke-opacity:1;stroke-width:17.30660721;stroke-dasharray:none" />
    <path
       d="m 4582,7454 c -24,-9 -46,-13 -49,-11 -7,8 -63,-14 -63,-24 0,-11 37,-49 48,-49 10,0 25,12 41,33 16,21 -1,23 -22,2 -13,-13 -16,-13 -27,1 -11,12 -10,13 4,8 9,-3 16,-2 16,3 0,11 68,34 90,31 16,-3 28,15 13,19 -4,1 -28,-5 -51,-13 z"
       id="path178"
       style="fill:#000004;fill-opacity:1;stroke:none;stroke-opacity:1;stroke-width:17.30660721;stroke-dasharray:none" />
    <path
       d="m 4660,7440 c -8,-5 -10,-10 -5,-10 6,0 17,5 25,10 8,5 11,10 5,10 -5,0 -17,-5 -25,-10 z"
       id="path180"
       style="fill:#000004;fill-opacity:1;stroke:none;stroke-opacity:1;stroke-width:17.30660721;stroke-dasharray:none" />
    <path
       d="m 4565,7390 c -3,-6 1,-7 9,-4 18,7 21,14 7,14 -6,0 -13,-4 -16,-10 z"
       id="path182"
       style="fill:#000004;fill-opacity:1;stroke:none;stroke-opacity:1;stroke-width:17.30660721;stroke-dasharray:none" />
    <path
       d="m 4365,6940 c -16,-11 -25,-20 -19,-20 11,0 64,39 54,40 -3,0 -18,-9 -35,-20 z"
       id="path184"
       style="fill:#000004;fill-opacity:1;stroke:none;stroke-opacity:1;stroke-width:17.30660721;stroke-dasharray:none" />
    <path
       d="m 7830,6866 c 0,-2 8,-10 18,-17 15,-13 16,-12 3,4 -13,16 -21,21 -21,13 z"
       id="path186"
       style="fill:#000004;fill-opacity:1;stroke:none;stroke-opacity:1;stroke-width:17.30660721;stroke-dasharray:none" />
    <path
       d="m 7588,6823 c 7,-3 16,-2 19,1 4,3 -2,6 -13,5 -11,0 -14,-3 -6,-6 z"
       id="path188"
       style="fill:#000004;fill-opacity:1;stroke:none;stroke-opacity:1;stroke-width:17.30660721;stroke-dasharray:none" />
    <path
       d="m 7630,6814 c 0,-7 17,-9 48,-6 63,5 64,9 3,13 -32,3 -51,0 -51,-7 z"
       id="path190"
       style="fill:#000004;fill-opacity:1;stroke:none;stroke-opacity:1;stroke-width:17.30660721;stroke-dasharray:none" />
    <path
       d="m 7660,6762 c 6,-13 14,-21 18,-18 3,4 -2,14 -12,24 -18,16 -18,16 -6,-6 z"
       id="path192"
       style="fill:#000004;fill-opacity:1;stroke:none;stroke-opacity:1;stroke-width:17.30660721;stroke-dasharray:none" />
    <path
       d="m 7425,6677 c -117,-66 -138,-247 -40,-355 40,-44 44,-46 106,-50 58,-3 68,-1 105,26 112,81 115,282 6,372 -47,38 -116,41 -177,7 z m 170,-28 c 67,-62 86,-169 45,-254 -39,-81 -80,-110 -143,-101 -62,9 -101,37 -127,92 -58,118 -26,240 74,285 66,30 100,25 151,-22 z"
       id="path194"
       style="fill:#000004;fill-opacity:1;stroke:none;stroke-opacity:1;stroke-width:17.30660721;stroke-dasharray:none" />
    <path
       d="m 2468,6163 c 6,-2 18,-2 25,0 6,3 1,5 -13,5 -14,0 -19,-2 -12,-5 z"
       id="path196"
       style="fill:#000004;fill-opacity:1;stroke:none;stroke-opacity:1;stroke-width:17.30660721;stroke-dasharray:none" />
    <path
       d="m 1955,6000 c -3,-5 1,-10 9,-10 8,0 18,5 21,10 3,6 -1,10 -9,10 -8,0 -18,-4 -21,-10 z"
       id="path198"
       style="fill:#000004;fill-opacity:1;stroke:none;stroke-opacity:1;stroke-width:17.30660721;stroke-dasharray:none" />
    <path
       d="m 7419,5953 c -13,-16 -12,-17 4,-4 9,7 17,15 17,17 0,8 -8,3 -21,-13 z"
       id="path200"
       style="fill:#000004;fill-opacity:1;stroke:none;stroke-opacity:1;stroke-width:17.30660721;stroke-dasharray:none" />
    <path
       d="m 7364,5898 c -17,-18 -37,-42 -45,-52 -13,-18 -13,-18 8,-6 12,8 19,18 17,22 -5,8 11,12 31,8 6,-1 7,2 2,6 -4,4 0,18 8,31 21,32 14,29 -21,-9 z"
       id="path202"
       style="fill:#000004;fill-opacity:1;stroke:none;stroke-opacity:1;stroke-width:17.30660721;stroke-dasharray:none" />
    <path
       d="m 7283,5800 c -10,-15 -10,-21 0,-26 6,-4 9,-3 4,1 -4,5 0,17 10,27 9,10 12,18 7,18 -5,0 -15,-9 -21,-20 z"
       id="path204"
       style="fill:#000004;fill-opacity:1;stroke:none;stroke-opacity:1;stroke-width:17.30660721;stroke-dasharray:none" />
    <path
       d="m 7239,5753 c -13,-16 -12,-17 4,-4 16,13 21,21 13,21 -2,0 -10,-8 -17,-17 z"
       id="path206"
       style="fill:#000004;fill-opacity:1;stroke:none;stroke-opacity:1;stroke-width:17.30660721;stroke-dasharray:none" />
    <path
       d="m 7200,5705 c -13,-14 -22,-27 -19,-29 2,-2 14,10 27,25 29,36 24,38 -8,4 z"
       id="path208"
       style="fill:#000004;fill-opacity:1;stroke:none;stroke-opacity:1;stroke-width:17.30660721;stroke-dasharray:none" />
    <path
       d="m 7100,5584 c -36,-42 -66,-81 -68,-87 -2,-7 7,2 20,18 49,64 91,105 101,98 6,-3 7,-1 3,6 -4,6 -2,18 4,26 7,8 11,15 8,15 -2,0 -33,-34 -68,-76 z"
       id="path210"
       style="fill:#000004;fill-opacity:1;stroke:none;stroke-opacity:1;stroke-width:17.30660721;stroke-dasharray:none" />
    <path
       d="m 6937,5393 c -43,-51 -74,-93 -69,-93 5,0 22,18 37,40 15,22 32,37 39,33 6,-3 8,-3 4,2 -8,8 50,80 64,80 9,0 12,11 6,23 -2,4 -38,-34 -81,-85 z"
       id="path212"
       style="fill:#000004;fill-opacity:1;stroke:none;stroke-opacity:1;stroke-width:17.30660721;stroke-dasharray:none" />
    <path
       d="m 6771,5196 c -72,-85 -79,-96 -60,-96 5,0 8,4 4,9 -3,5 5,18 18,28 13,10 24,23 25,28 1,6 7,10 12,10 6,0 10,5 11,10 0,6 16,29 36,53 19,23 32,42 30,42 -3,0 -37,-38 -76,-84 z"
       id="path214"
       style="fill:#000004;fill-opacity:1;stroke:none;stroke-opacity:1;stroke-width:17.30660721;stroke-dasharray:none" />
    <path
       d="m 3379,5753 c -13,-16 -12,-17 4,-4 9,7 17,15 17,17 0,8 -8,3 -21,-13 z"
       id="path216"
       style="fill:#000004;fill-opacity:1;stroke:none;stroke-opacity:1;stroke-width:17.30660721;stroke-dasharray:none" />
    <path
       d="m 6397,5182 c -38,-42 -1,-102 49,-80 28,13 42,53 27,77 -15,23 -56,25 -76,3 z m 60,-17 c 6,-18 -25,-58 -38,-49 -11,6 -12,48 -2,57 12,12 33,7 40,-8 z"
       id="path218"
       style="fill:#000004;fill-opacity:1;stroke:none;stroke-opacity:1;stroke-width:17.30660721;stroke-dasharray:none" />
    <path
       d="m 6587,4977 c -43,-50 -44,-54 -21,-49 14,2 28,12 31,21 4,9 15,29 26,44 34,50 11,39 -36,-16 z"
       id="path220"
       style="fill:#000004;fill-opacity:1;stroke:none;stroke-opacity:1;stroke-width:17.30660721;stroke-dasharray:none" />
    <path
       d="m 6525,4901 c -3,-5 -2,-12 3,-15 5,-3 9,1 9,9 0,17 -3,19 -12,6 z"
       id="path222"
       style="fill:#000004;fill-opacity:1;stroke:none;stroke-opacity:1;stroke-width:17.30660721;stroke-dasharray:none" />
    <path
       d="m 6476,4851 c -20,-21 -24,-31 -15,-36 7,-5 10,-4 5,3 -3,5 6,19 21,30 16,11 25,23 22,26 -3,3 -18,-7 -33,-23 z"
       id="path224"
       style="fill:#000004;fill-opacity:1;stroke:none;stroke-opacity:1;stroke-width:17.30660721;stroke-dasharray:none" />
    <path
       d="m 6359,4713 c -7,-10 -9,-15 -5,-11 5,4 15,3 22,-3 9,-8 11,-5 7,10 -6,25 -7,25 -24,4 z"
       id="path226"
       style="fill:#000004;fill-opacity:1;stroke:none;stroke-opacity:1;stroke-width:17.30660721;stroke-dasharray:none" />
    <path
       d="m 6329,4673 c -13,-16 -12,-17 4,-4 9,7 17,15 17,17 0,8 -8,3 -21,-13 z"
       id="path228"
       style="fill:#000004;fill-opacity:1;stroke:none;stroke-opacity:1;stroke-width:17.30660721;stroke-dasharray:none" />
    <path
       d="m 6244,4568 c -29,-31 -29,-31 -2,-12 15,10 29,25 32,32 8,18 2,15 -30,-20 z"
       id="path230"
       style="fill:#000004;fill-opacity:1;stroke:none;stroke-opacity:1;stroke-width:17.30660721;stroke-dasharray:none" />
    <path
       d="m 6131,4436 c -45,-52 -81,-96 -81,-100 0,-9 53,47 89,94 19,25 37,47 40,50 15,12 44,50 38,50 -3,0 -42,-42 -86,-94 z"
       id="path232"
       style="fill:#000004;fill-opacity:1;stroke:none;stroke-opacity:1;stroke-width:17.30660721;stroke-dasharray:none" />
    <path
       d="m 6005,4290 c -16,-16 -24,-30 -19,-30 6,0 20,14 32,30 13,17 21,30 19,30 -2,0 -16,-13 -32,-30 z"
       id="path234"
       style="fill:#000004;fill-opacity:1;stroke:none;stroke-opacity:1;stroke-width:17.30660721;stroke-dasharray:none" />
    <path
       d="m 5950,4220 c -6,-11 -9,-20 -8,-20 2,0 11,9 21,20 9,11 13,20 7,20 -5,0 -14,-9 -20,-20 z"
       id="path236"
       style="fill:#000004;fill-opacity:1;stroke:none;stroke-opacity:1;stroke-width:17.30660721;stroke-dasharray:none" />
    <path
       d="m 5236,4391 c -11,-12 -17,-23 -14,-26 8,-9 41,21 37,34 -3,9 -11,6 -23,-8 z"
       id="path238"
       style="fill:#000004;fill-opacity:1;stroke:none;stroke-opacity:1;stroke-width:17.30660721;stroke-dasharray:none" />
    <path
       d="m 5190,4355 c -11,-13 -10,-14 4,-9 9,3 16,10 16,15 0,13 -6,11 -20,-6 z"
       id="path240"
       style="fill:#000004;fill-opacity:1;stroke:none;stroke-opacity:1;stroke-width:17.30660721;stroke-dasharray:none" />
    <path
       d="m 5891,4061 c 43,-37 80,-101 137,-231 10,-23 10,-22 5,10 -8,48 -56,148 -92,190 -16,19 -44,43 -62,54 -30,16 -28,13 12,-23 z"
       id="path242"
       style="fill:#000004;fill-opacity:1;stroke:none;stroke-opacity:1;stroke-width:17.30660721;stroke-dasharray:none" />
    <path
       d="m 5712,3950 c 0,-19 2,-27 5,-17 2,9 2,25 0,35 -3,9 -5,1 -5,-18 z"
       id="path244"
       style="fill:#000004;fill-opacity:1;stroke:none;stroke-opacity:1;stroke-width:17.30660721;stroke-dasharray:none" />
    <path
       d="m 2625,2610 c -3,-5 -2,-10 4,-10 5,0 13,5 16,10 3,6 2,10 -4,10 -5,0 -13,-4 -16,-10 z"
       id="path246"
       style="fill:#000004;fill-opacity:1;stroke:none;stroke-opacity:1;stroke-width:17.30660721;stroke-dasharray:none" />
    <path
       d="m 2900,2224 c 0,-10 5,-26 10,-34 8,-11 9,-7 4,15 -8,37 -14,45 -14,19 z"
       id="path248"
       style="fill:#000004;fill-opacity:1;stroke:none;stroke-opacity:1;stroke-width:17.30660721;stroke-dasharray:none" />
    <path
       d="m 6280,8452 c 0,-9 30,-38 65,-62 11,-8 2,5 -20,28 -41,44 -45,47 -45,34 z"
       id="path250"
       style="fill:#000004;fill-opacity:1;stroke:none;stroke-opacity:1;stroke-width:17.30660721;stroke-dasharray:none" />
    <path
       d="m 6343,8356 c 7,-14 15,-26 20,-26 13,0 7,17 -13,35 -19,17 -19,17 -7,-9 z"
       id="path252"
       style="fill:#000004;fill-opacity:1;stroke:none;stroke-opacity:1;stroke-width:17.30660721;stroke-dasharray:none" />
    <path
       d="m 6704,8023 c 16,-18 32,-31 34,-28 3,3 3,6 1,8 -2,1 -17,13 -34,27 l -30,25 z"
       id="path254"
       style="fill:#000004;fill-opacity:1;stroke:none;stroke-opacity:1;stroke-width:17.30660721;stroke-dasharray:none" />
    <path
       d="m 6746,7969 c 3,-5 9,-7 14,-4 4,3 18,-7 30,-22 15,-20 18,-22 10,-6 -5,12 -16,25 -23,30 -18,11 -38,13 -31,2 z"
       id="path256"
       style="fill:#000004;fill-opacity:1;stroke:none;stroke-opacity:1;stroke-width:17.30660721;stroke-dasharray:none" />
    <path
       d="m 9665,3802 c -11,-2 -38,-11 -60,-21 -22,-10 -49,-21 -60,-25 -57,-17 -135,-138 -135,-208 0,-12 -24,-53 -53,-92 -82,-109 -228,-320 -271,-392 -21,-35 -41,-63 -43,-60 -4,4 140,396 155,422 4,7 20,28 36,49 25,30 30,49 36,113 4,42 6,78 5,80 -1,1 -23,-9 -48,-23 -61,-35 -105,-86 -112,-132 -7,-41 -19,-75 -119,-323 l -67,-165 h -147 c -125,0 -158,-3 -217,-22 -38,-13 -81,-32 -95,-42 l -25,-20 -5,-443 c -3,-252 -1,-451 4,-463 14,-30 46,-52 106,-72 80,-26 361,-26 440,0 95,32 107,40 119,72 7,21 11,167 10,458 v 428 l 68,91 c 72,97 223,304 292,399 42,59 48,78 31,95 -7,7 -1,18 17,35 23,20 25,20 9,2 -10,-12 -16,-28 -14,-35 3,-8 19,1 45,27 29,29 46,59 63,110 12,39 31,87 42,108 22,44 21,54 -7,49 z m -32,-52 c -3,-11 -9,-20 -13,-20 -4,0 -13,-13 -20,-30 -7,-16 -21,-39 -31,-51 -10,-12 -16,-25 -14,-30 3,-4 -15,-23 -39,-42 -25,-19 -42,-38 -38,-42 4,-4 -5,-1 -20,6 -34,15 -35,30 -4,94 29,62 59,90 122,115 62,24 63,24 57,0 z m -418,-171 c -22,-63 -46,-113 -59,-121 -17,-11 -26,27 -16,63 9,29 78,114 87,105 2,-1 -4,-23 -12,-47 z m 252,-74 c 24,-22 25,-25 8,-23 -12,2 -19,-2 -17,-10 1,-8 -2,-11 -7,-8 -13,8 -54,-61 -45,-75 4,-7 3,-9 -4,-5 -12,7 -122,-128 -122,-150 0,-8 -6,-11 -17,-7 -13,5 -15,2 -10,-11 5,-12 -1,-28 -15,-46 -46,-57 -58,-74 -100,-146 -24,-41 -46,-74 -50,-74 -4,0 -10,9 -13,20 -7,23 17,68 109,204 34,49 85,125 115,170 30,45 69,99 87,122 19,23 34,46 34,53 0,18 17,13 47,-14 z m -27,-74 c -5,-11 -15,-23 -21,-27 -6,-3 -3,5 6,20 20,30 30,35 15,7 z m -285,-19 c -18,-14 -35,-44 -37,-62 0,-3 -9,-27 -19,-53 -11,-26 -17,-58 -16,-70 2,-12 2,-15 -1,-7 -2,8 -29,-48 -58,-124 -69,-177 -110,-262 -129,-270 -21,-8 -20,-4 25,109 21,55 64,165 95,245 31,80 65,163 76,186 10,23 19,46 19,53 0,6 15,11 33,11 32,-1 32,-1 12,-18 z m 216,-86 c -17,-24 -27,-47 -23,-51 4,-5 1,-5 -6,-1 -13,8 -11,15 26,64 36,47 38,39 3,-12 z m -467,-324 c 3,-4 -35,-6 -84,-4 -148,7 -320,-35 -342,-84 -25,-55 40,-93 197,-115 95,-13 266,-5 326,16 51,18 54,18 40,2 -6,-8 -8,-17 -4,-20 3,-4 -2,-7 -12,-7 -10,0 -23,-8 -30,-17 -16,-22 1,-53 29,-53 19,0 19,0 0,22 -19,21 -19,21 2,16 12,-3 29,-1 38,4 14,8 16,3 16,-29 0,-21 -5,-45 -11,-53 -8,-11 -9,-6 -5,23 2,20 1,37 -4,37 -8,0 -7,-68 2,-105 3,-11 3,-13 0,-5 -4,12 -7,11 -14,-5 -6,-15 -7,-13 -3,9 6,26 4,28 -9,17 -13,-11 -16,-11 -16,2 0,8 -6,20 -14,26 -18,15 -26,-5 -26,-70 0,-27 -3,-49 -7,-49 -5,0 -17,-13 -28,-29 -10,-16 -23,-27 -27,-25 -4,3 -8,0 -8,-7 0,-6 -8,-17 -17,-24 -12,-9 -18,-31 -21,-76 -3,-63 -34,-146 -59,-162 -7,-4 -13,-15 -13,-23 0,-8 -4,-12 -10,-9 -6,3 -7,-1 -4,-9 3,-9 1,-16 -5,-16 -6,0 -11,-4 -11,-10 0,-5 7,-10 15,-10 20,0 19,-7 -5,-37 -25,-32 -25,-43 -2,-43 14,-1 13,-4 -7,-21 -14,-11 -33,-18 -43,-16 -23,6 -25,-31 -2,-47 25,-19 -71,-19 -149,0 -51,12 -73,23 -92,46 l -25,30 v 418 c 0,230 3,426 6,435 9,22 76,54 148,70 67,15 282,20 290,7 z m 152,-56 c 7,-19 -21,-72 -42,-80 -24,-9 -24,-6 -1,47 21,48 34,58 43,33 z m 24,-112 c 0,-8 -5,-12 -10,-9 -6,4 -8,11 -5,16 9,14 15,11 15,-7 z m -33,-266 c -3,-8 -6,-5 -6,6 -1,11 2,17 5,13 3,-3 4,-12 1,-19 z m 31,-98 c 0,-103 -5,-87 -11,34 -2,50 0,81 4,70 4,-10 7,-57 7,-104 z m -61,28 c -2,-13 -4,-3 -4,22 0,25 2,35 4,23 2,-13 2,-33 0,-45 z m 40,-60 c -3,-8 -6,-5 -6,6 -1,11 2,17 5,13 3,-3 4,-12 1,-19 z m -170,-100 c -2,-13 -4,-3 -4,22 0,25 2,35 4,23 2,-13 2,-33 0,-45 z m 190,5 c -3,-10 -5,-4 -5,12 0,17 2,24 5,18 2,-7 2,-21 0,-30 z m -17,17 c 0,-5 -2,-10 -4,-10 -3,0 -8,5 -11,10 -3,6 -1,10 4,10 6,0 11,-4 11,-10 z m 7,-92 c -3,-7 -5,-2 -5,12 0,14 2,19 5,13 2,-7 2,-19 0,-25 z m 3,-40 c 0,-16 -3,-19 -11,-11 -6,6 -8,16 -5,22 11,17 16,13 16,-11 z m 7,-115 c -3,-10 -5,-2 -5,17 0,19 2,27 5,18 2,-10 2,-26 0,-35 z m -30,-68 c -15,-14 -33,-25 -39,-25 -6,0 4,11 23,24 44,32 51,32 16,1 z m -160,-51 c -3,-3 -12,-4 -19,-1 -8,3 -5,6 6,6 11,1 17,-2 13,-5 z"
       id="path258"
       style="fill:#000004;fill-opacity:1;stroke:none;stroke-opacity:1;stroke-width:17.30660721;stroke-dasharray:none" />
    <path
       d="m 8791,2274 c 0,-11 3,-14 6,-6 3,7 2,16 -1,19 -3,4 -6,-2 -5,-13 z"
       id="path260"
       style="fill:#000004;fill-opacity:1;stroke:none;stroke-opacity:1;stroke-width:17.30660721;stroke-dasharray:none" />
    <path
       d="m 8690,2040 c -2,-42 -3,-43 -10,-15 l -8,30 -1,-32 c 0,-18 4,-33 9,-33 15,0 22,24 17,62 -3,29 -4,28 -7,-12 z"
       id="path262"
       style="fill:#000004;fill-opacity:1;stroke:none;stroke-opacity:1;stroke-width:17.30660721;stroke-dasharray:none" />
    <path
       d="m 7220,2333 c 0,-10 4,-14 8,-8 4,6 11,13 16,18 5,4 2,7 -7,7 -10,0 -17,-8 -17,-17 z"
       id="path264"
       style="fill:#000004;fill-opacity:1;stroke:none;stroke-opacity:1;stroke-width:17.30660721;stroke-dasharray:none" />
    <path
       d="m 7280,2340 c -8,-5 -10,-10 -5,-10 6,0 17,5 25,10 8,5 11,10 5,10 -5,0 -17,-5 -25,-10 z"
       id="path266"
       style="fill:#000004;fill-opacity:1;stroke:none;stroke-opacity:1;stroke-width:17.30660721;stroke-dasharray:none" />
    <path
       d="m 9140,2238 c 0,-54 12,-56 24,-3 5,23 4,27 -5,15 -8,-12 -9,-9 -5,13 4,15 2,27 -4,27 -5,0 -10,-23 -10,-52 z"
       id="path268"
       style="fill:#000004;fill-opacity:1;stroke:none;stroke-opacity:1;stroke-width:17.30660721;stroke-dasharray:none" />
    <path
       d="m 9368,2263 c 6,-2 18,-2 25,0 6,3 1,5 -13,5 -14,0 -19,-2 -12,-5 z"
       id="path270"
       style="fill:#000004;fill-opacity:1;stroke:none;stroke-opacity:1;stroke-width:17.30660721;stroke-dasharray:none" />
    <path
       d="m 7718,2203 c 7,-3 16,-2 19,1 4,3 -2,6 -13,5 -11,0 -14,-3 -6,-6 z"
       id="path272"
       style="fill:#000004;fill-opacity:1;stroke:none;stroke-opacity:1;stroke-width:17.30660721;stroke-dasharray:none" />
    <path
       d="m 7818,2173 c 7,-3 16,-2 19,1 4,3 -2,6 -13,5 -11,0 -14,-3 -6,-6 z"
       id="path274"
       style="fill:#000004;fill-opacity:1;stroke:none;stroke-opacity:1;stroke-width:17.30660721;stroke-dasharray:none" />
    <path
       d="m 7858,2163 c 7,-3 16,-2 19,1 4,3 -2,6 -13,5 -11,0 -14,-3 -6,-6 z"
       id="path276"
       style="fill:#000004;fill-opacity:1;stroke:none;stroke-opacity:1;stroke-width:17.30660721;stroke-dasharray:none" />
    <path
       d="m 7233,2120 c 0,-25 2,-35 4,-22 2,12 2,32 0,45 -2,12 -4,2 -4,-23 z"
       id="path278"
       style="fill:#000004;fill-opacity:1;stroke:none;stroke-opacity:1;stroke-width:17.30660721;stroke-dasharray:none" />
    <path
       d="m 7242,2020 c 0,-14 2,-19 5,-12 2,6 2,18 0,25 -3,6 -5,1 -5,-13 z"
       id="path280"
       style="fill:#000004;fill-opacity:1;stroke:none;stroke-opacity:1;stroke-width:17.30660721;stroke-dasharray:none" />
    <path
       d="m 9038,1963 c 7,-3 16,-2 19,1 4,3 -2,6 -13,5 -11,0 -14,-3 -6,-6 z"
       id="path282"
       style="fill:#000004;fill-opacity:1;stroke:none;stroke-opacity:1;stroke-width:17.30660721;stroke-dasharray:none" />
    <path
       d="m 7235,1840 c -4,-23 -5,-43 -2,-46 2,-3 7,14 11,37 4,23 5,44 2,46 -2,2 -7,-14 -11,-37 z"
       id="path284"
       style="fill:#000004;fill-opacity:1;stroke:none;stroke-opacity:1;stroke-width:17.30660721;stroke-dasharray:none" />
    <path
       d="m 1365,1780 c -158,-10 -279,-42 -312,-82 -19,-22 -25,-98 -12,-130 15,-36 71,-66 191,-102 237,-73 497,-99 828,-86 204,8 262,17 339,51 81,35 89,41 101,68 14,36 -11,139 -41,163 -36,30 -167,65 -324,87 -280,40 -489,48 -770,31 z m 566,-25 c 284,-27 414,-53 494,-98 32,-18 40,-28 40,-52 0,-24 -7,-32 -45,-52 -114,-58 -311,-78 -611,-63 -214,10 -279,18 -476,55 -197,38 -278,73 -271,118 4,30 59,64 126,78 146,30 497,37 743,14 z m -837,-155 c 40,-24 232,-75 361,-95 264,-42 732,-46 873,-8 40,11 86,30 102,41 32,24 47,15 30,-18 -22,-40 -94,-62 -286,-85 -61,-7 -137,-11 -170,-10 -32,2 -133,7 -224,10 -168,6 -274,16 -390,36 -173,30 -317,85 -332,127 -9,27 -8,27 36,2 z"
       id="path286"
       style="fill:#000004;fill-opacity:1;stroke:none;stroke-opacity:1;stroke-width:17.30660721;stroke-dasharray:none" />
    <path
       d="m 1422,1720 c 37,-4 77,-11 90,-15 18,-6 21,-5 11,5 -7,8 -44,14 -90,16 l -78,3 z"
       id="path288"
       style="fill:#000004;fill-opacity:1;stroke:none;stroke-opacity:1;stroke-width:17.30660721;stroke-dasharray:none" />
    <path
       d="m 1169,1681 -24,-19 23,-25 c 31,-33 103,-63 178,-76 32,-6 97,-17 144,-26 47,-8 99,-14 115,-14 17,1 -8,7 -54,14 -46,8 -113,20 -150,29 -36,8 -82,18 -101,22 -56,10 -130,55 -130,79 0,7 10,17 23,23 12,6 17,11 11,11 -7,1 -22,-8 -35,-18 z"
       id="path290"
       style="fill:#000004;fill-opacity:1;stroke:none;stroke-opacity:1;stroke-width:17.30660721;stroke-dasharray:none" />
    <path
       d="m 1855,1676 c -41,-16 -65,-39 -65,-63 0,-8 24,-25 54,-39 43,-20 80,-26 185,-34 121,-9 152,-8 220,6 44,9 16,12 -34,4 -64,-11 -275,6 -338,26 -57,19 -68,38 -38,67 20,21 30,22 189,21 169,0 227,-9 265,-42 16,-14 16,-17 1,-40 -11,-16 -12,-23 -3,-20 7,2 19,14 27,26 13,20 12,24 -10,43 -42,38 -104,51 -263,55 -116,3 -159,1 -190,-10 z"
       id="path292"
       style="fill:#000004;fill-opacity:1;stroke:none;stroke-opacity:1;stroke-width:17.30660721;stroke-dasharray:none" />
    <path
       d="m 1278,1662 c -35,-21 -36,-31 -3,-24 14,2 30,13 36,23 12,23 2,24 -33,1 z"
       id="path294"
       style="fill:#000004;fill-opacity:1;stroke:none;stroke-opacity:1;stroke-width:17.30660721;stroke-dasharray:none" />
    <path
       d="m 1668,1513 c 12,-2 30,-2 40,0 9,3 -1,5 -23,4 -22,0 -30,-2 -17,-4 z"
       id="path296"
       style="fill:#000004;fill-opacity:1;stroke:none;stroke-opacity:1;stroke-width:17.30660721;stroke-dasharray:none" />
    <path
       d="m 8060,1749 c -106,-9 -181,-25 -222,-45 -35,-18 -80,-63 -73,-74 3,-5 -2,-16 -11,-24 -12,-12 -12,-16 -2,-16 8,0 19,-13 25,-29 15,-40 75,-81 190,-131 176,-75 241,-110 272,-145 52,-60 38,-112 -43,-160 -106,-62 -242,-92 -467,-101 -232,-10 -445,16 -654,80 -11,4 -4,-1 15,-10 56,-26 214,-63 344,-80 140,-19 368,-14 511,11 108,19 236,68 281,107 38,34 41,29 16,-22 -13,-26 -33,-43 -81,-67 -36,-17 -67,-31 -70,-30 -3,1 -16,-4 -27,-11 -59,-32 -291,-55 -494,-48 -237,8 -397,40 -531,107 -82,41 -110,73 -71,82 14,3 13,6 -8,15 -31,13 -58,44 -77,90 -39,93 53,176 241,217 107,24 407,14 472,-14 46,-21 80,-63 86,-106 3,-24 6,-27 12,-12 24,51 -44,129 -130,148 -29,7 -52,15 -50,18 4,7 -171,16 -251,13 -119,-4 -161,-7 -151,-13 6,-4 -9,-10 -33,-14 -24,-4 -66,-18 -93,-31 -28,-12 -54,-20 -59,-17 -6,3 -7,1 -3,-5 3,-6 2,-13 -3,-17 -5,-3 -14,3 -20,12 -6,10 -11,13 -11,7 0,-5 5,-15 11,-21 8,-8 6,-14 -10,-22 -34,-19 -55,-75 -48,-132 7,-56 27,-119 38,-119 4,0 6,-8 4,-17 -4,-25 6,-38 16,-22 6,11 14,8 36,-13 75,-70 283,-159 420,-178 43,-7 172,-14 286,-17 204,-5 321,5 447,37 19,5 49,11 65,14 17,3 50,12 75,21 25,8 34,13 21,10 -18,-3 -21,-1 -12,8 15,15 14,30 -1,21 -7,-3 1,5 17,19 32,27 34,32 40,147 2,41 4,77 5,80 0,3 5,-2 11,-10 9,-12 9,-11 4,5 -4,11 -8,26 -8,33 0,6 -4,12 -9,12 -5,0 -6,-9 -3,-20 10,-30 -2,-24 -19,11 -9,17 -13,36 -9,42 3,6 1,7 -6,3 -11,-7 -52,13 -79,40 -14,15 5,18 180,34 114,10 239,45 290,81 26,19 41,48 16,33 -8,-5 -9,-2 -5,10 4,10 7,22 7,27 0,6 5,7 11,3 7,-4 10,-1 7,7 -3,8 -12,13 -21,13 -11,-1 -19,9 -23,31 -3,18 -16,42 -28,54 -74,69 -327,110 -556,90 z m 362,-34 c 95,-16 188,-57 189,-82 3,-53 0,-103 -6,-113 -12,-19 -96,-51 -175,-66 -174,-34 -352,-28 -475,15 -126,44 -190,122 -148,180 57,77 361,110 615,66 z m -142,-655 c 0,-5 -5,-10 -11,-10 -5,0 -7,5 -4,10 3,6 8,10 11,10 2,0 4,-4 4,-10 z"
       id="path298"
       style="fill:#000004;fill-opacity:1;stroke:none;stroke-opacity:1;stroke-width:17.30660721;stroke-dasharray:none" />
    <path
       d="m 8050,1690 c -19,-4 10,-5 65,-2 55,3 102,6 104,8 8,7 -133,2 -169,-6 z"
       id="path300"
       style="fill:#000004;fill-opacity:1;stroke:none;stroke-opacity:1;stroke-width:17.30660721;stroke-dasharray:none" />
    <path
       d="m 8119,1666 c -70,-8 -103,-16 -118,-30 -43,-39 -14,-88 58,-100 36,-5 56,-1 136,35 51,22 96,47 99,55 7,18 -32,54 -58,53 -12,-1 -64,-6 -117,-13 z"
       id="path302"
       style="fill:#3b517c;fill-opacity:1;stroke:#000000;stroke-opacity:1;stroke-width:17.30660721;stroke-dasharray:none" />
    <path
       d="m 8310,1602 c -54,-21 -65,-52 -25,-70 32,-15 45,-15 45,-2 0,6 -9,10 -21,10 -14,0 -19,5 -17,18 4,23 87,44 156,39 28,-2 52,0 52,4 0,24 -126,25 -190,1 z"
       id="path304"
       style="fill:#000004;fill-opacity:1;stroke:none;stroke-opacity:1;stroke-width:17.30660721;stroke-dasharray:none" />
    <path
       d="m 7890,1560 c 62,-47 202,-80 341,-80 139,0 343,45 365,82 5,8 2,9 -12,3 -110,-46 -249,-70 -390,-68 -110,2 -153,11 -299,67 -16,7 -17,6 -5,-4 z"
       id="path306"
       style="fill:#000004;fill-opacity:1;stroke:none;stroke-opacity:1;stroke-width:17.30660721;stroke-dasharray:none" />
    <path
       d="m 8350,1560 c -20,-6 -21,-8 -5,-8 11,0 31,4 45,8 20,6 21,8 5,8 -11,0 -31,-4 -45,-8 z"
       id="path308"
       style="fill:#000004;fill-opacity:1;stroke:none;stroke-opacity:1;stroke-width:17.30660721;stroke-dasharray:none" />
    <path
       d="m 7008,1603 c 7,-3 16,-2 19,1 4,3 -2,6 -13,5 -11,0 -14,-3 -6,-6 z"
       id="path310"
       style="fill:#000004;fill-opacity:1;stroke:none;stroke-opacity:1;stroke-width:17.30660721;stroke-dasharray:none" />
    <path
       d="m 6781,1570 c -10,-5 -9,-8 2,-13 7,-3 19,-2 26,3 10,5 9,8 -2,13 -7,3 -19,2 -26,-3 z"
       id="path312"
       style="fill:#000004;fill-opacity:1;stroke:none;stroke-opacity:1;stroke-width:17.30660721;stroke-dasharray:none" />
    <path
       d="m 7610,1550 c -8,-5 -10,-10 -5,-10 6,0 17,5 25,10 8,5 11,10 5,10 -5,0 -17,-5 -25,-10 z"
       id="path314"
       style="fill:#000004;fill-opacity:1;stroke:none;stroke-opacity:1;stroke-width:17.30660721;stroke-dasharray:none" />
    <path
       d="m 6610,1500 c 0,-5 5,-10 11,-10 5,0 7,5 4,10 -3,6 -8,10 -11,10 -2,0 -4,-4 -4,-10 z"
       id="path316"
       style="fill:#000004;fill-opacity:1;stroke:none;stroke-opacity:1;stroke-width:17.30660721;stroke-dasharray:none" />
    <path
       d="m 6525,1475 c -16,-8 -23,-14 -14,-15 8,0 24,7 35,15 23,18 18,18 -21,0 z"
       id="path318"
       style="fill:#000004;fill-opacity:1;stroke:none;stroke-opacity:1;stroke-width:17.30660721;stroke-dasharray:none" />
    <path
       d="m 6608,1463 c 7,-3 16,-2 19,1 4,3 -2,6 -13,5 -11,0 -14,-3 -6,-6 z"
       id="path320"
       style="fill:#000004;fill-opacity:1;stroke:none;stroke-opacity:1;stroke-width:17.30660721;stroke-dasharray:none" />
    <path
       d="m 6448,1443 c 7,-3 16,-2 19,1 4,3 -2,6 -13,5 -11,0 -14,-3 -6,-6 z"
       id="path322"
       style="fill:#000004;fill-opacity:1;stroke:none;stroke-opacity:1;stroke-width:17.30660721;stroke-dasharray:none" />
    <path
       d="m 7175,1423 c -91,-11 -195,-67 -195,-106 0,-8 13,-29 29,-46 25,-27 36,-31 80,-31 73,0 391,103 391,127 0,13 -13,28 -40,46 -20,14 -45,17 -130,16 -58,-1 -118,-4 -135,-6 z m 275,-57 c 0,-7 -19,-20 -42,-29 -43,-16 -117,-33 -88,-21 8,4 17,10 20,13 8,10 84,49 98,50 6,1 12,-5 12,-13 z"
       id="path324"
       style="fill:#234f1e;fill-opacity:1;stroke:#000000;stroke-opacity:1;stroke-width:12.97995549;stroke-dasharray:none" />
    <path
       d="m 6827,1359 c 7,-7 15,-10 18,-7 3,3 -2,9 -12,12 -14,6 -15,5 -6,-5 z"
       id="path326"
       style="fill:#000004;fill-opacity:1;stroke:none;stroke-opacity:1;stroke-width:17.30660721;stroke-dasharray:none" />
    <path
       d="m 8235,1340 c 3,-5 8,-10 11,-10 2,0 4,5 4,10 0,6 -5,10 -11,10 -5,0 -7,-4 -4,-10 z"
       id="path328"
       style="fill:#000004;fill-opacity:1;stroke:none;stroke-opacity:1;stroke-width:17.30660721;stroke-dasharray:none" />
    <path
       d="m 7848,1248 c -37,-10 -76,-43 -65,-55 4,-4 13,1 20,10 13,18 31,24 113,37 57,9 109,1 168,-24 39,-16 39,-16 21,4 -10,11 -34,24 -54,30 -44,12 -153,11 -203,-2 z"
       id="path330"
       style="fill:#000004;fill-opacity:1;stroke:none;stroke-opacity:1;stroke-width:17.30660721;stroke-dasharray:none" />
    <path
       d="m 6830,1183 c 0,-4 5,-15 10,-23 8,-13 10,-13 10,2 0,9 -4,20 -10,23 -5,3 -10,3 -10,-2 z"
       id="path332"
       style="fill:#000004;fill-opacity:1;stroke:none;stroke-opacity:1;stroke-width:17.30660721;stroke-dasharray:none" />
    <path
       d="m 7361,1162 c -30,-10 -56,-23 -59,-31 -5,-15 9,-14 118,14 72,19 182,14 252,-10 40,-13 40,-13 20,6 -12,10 -40,23 -64,29 -67,15 -206,11 -267,-8 z"
       id="path334"
       style="fill:#000004;fill-opacity:1;stroke:none;stroke-opacity:1;stroke-width:17.30660721;stroke-dasharray:none" />
    <path
       d="m 7000,1130 c 8,-5 20,-10 25,-10 6,0 3,5 -5,10 -8,5 -19,10 -25,10 -5,0 -3,-5 5,-10 z"
       id="path336"
       style="fill:#000004;fill-opacity:1;stroke:none;stroke-opacity:1;stroke-width:17.30660721;stroke-dasharray:none" />
    <path
       d="m 5810,1060 c -8,-5 -10,-10 -5,-10 6,0 17,5 25,10 8,5 11,10 5,10 -5,0 -17,-5 -25,-10 z"
       id="path338"
       style="fill:#000004;fill-opacity:1;stroke:none;stroke-opacity:1;stroke-width:17.30660721;stroke-dasharray:none" />
  </g>
  <path
     style="fill:#000000;fill-opacity:1;stroke:#000000;stroke-width:0.107;stroke-linejoin:round;stroke-dasharray:none;stroke-opacity:1"
     d="m 165.52453,199.52492 1.0494,-0.76956 1.49247,-0.60631 0.27984,0.39644 -0.90948,0.583 z"
     id="path42980" />
</svg>
